<svg viewBox="0 0 600 400" xmlns="http://www.w3.org/2000/svg">
<g transform="translate(72, 364)">
<g>
<g>
<circle cx="0" cy="NaN" fill="#07fc03" r="0.800000011920929"/>
<circle cx="0.5333333333333333" cy="-11235.290810810811" fill="#07fc03" r="0.800000011920929"/>
<circle cx="1.0666666666666667" cy="-5604.376216216217" fill="#07fc03" r="0.800000011920929"/>
<circle cx="1.5999999999999999" cy="-3727.5027027027027" fill="#07fc03" r="0.800000011920929"/>
<circle cx="2.1333333333333333" cy="-2789.1394594594594" fill="#07fc03" r="0.800000011920929"/>
<circle cx="2.6666666666666665" cy="-2226.172972972973" fill="#07fc03" r="0.800000011920929"/>
<circle cx="3.2" cy="-1850.8864864864865" fill="#07fc03" r="0.800000011920929"/>
<circle cx="3.7333333333333334" cy="-1582.8562162162161" fill="#07fc03" r="0.800000011920929"/>
<circle cx="4.266666666666667" cy="-1381.8335135135135" fill="#07fc03" r="0.800000011920929"/>
<circle cx="4.8" cy="-1225.507027027027" fill="#07fc03" r="0.800000011920929"/>
<circle cx="5.333333333333332" cy="-1100.4972972972973" fill="#07fc03" r="0.800000011920929"/>
<circle cx="5.866666666666666" cy="-998.1664864864865" fill="#07fc03" r="0.800000011920929"/>
<circle cx="6.3999999999999995" cy="-912.9643243243244" fill="#07fc03" r="0.800000011920929"/>
<circle cx="6.933333333333333" cy="-840.8475675675676" fill="#07fc03" r="0.800000011920929"/>
<circle cx="7.466666666666665" cy="-779.0227027027028" fill="#07fc03" r="0.800000011920929"/>
<circle cx="8" cy="-725.4681081081081" fill="#07fc03" r="0.800000011920929"/>
<circle cx="8.533333333333333" cy="-678.64" fill="#07fc03" r="0.800000011920929"/>
<circle cx="9.066666666666668" cy="-637.2886486486486" fill="#07fc03" r="0.800000011920929"/>
<circle cx="9.600000000000001" cy="-600.5686486486486" fill="#07fc03" r="0.800000011920929"/>
<circle cx="10.133333333333335" cy="-567.7081081081081" fill="#07fc03" r="0.800000011920929"/>
<circle cx="10.666666666666668" cy="-538.1189189189189" fill="#07fc03" r="0.800000011920929"/>
<circle cx="11.200000000000003" cy="-511.36" fill="#07fc03" r="0.800000011920929"/>
<circle cx="11.733333333333336" cy="-487.0637837837838" fill="#07fc03" r="0.800000011920929"/>
<circle cx="12.266666666666671" cy="-464.8627027027027" fill="#07fc03" r="0.800000011920929"/>
<circle cx="12.800000000000004" cy="-444.49945945945944" fill="#07fc03" r="0.800000011920929"/>
<circle cx="13.333333333333336" cy="-425.7902702702703" fill="#07fc03" r="0.800000011920929"/>
<circle cx="13.866666666666669" cy="-408.5145945945946" fill="#07fc03" r="0.800000011920929"/>
<circle cx="14.400000000000002" cy="-392.56216216216217" fill="#07fc03" r="0.800000011920929"/>
<circle cx="14.933333333333337" cy="-377.7124324324324" fill="#07fc03" r="0.800000011920929"/>
<circle cx="15.466666666666672" cy="-363.8918918918919" fill="#07fc03" r="0.800000011920929"/>
<circle cx="16.000000000000007" cy="-350.9902702702703" fill="#07fc03" r="0.800000011920929"/>
<circle cx="16.53333333333334" cy="-338.93405405405406" fill="#07fc03" r="0.800000011920929"/>
<circle cx="17.066666666666674" cy="-327.64972972972976" fill="#07fc03" r="0.800000011920929"/>
<circle cx="17.60000000000001" cy="-317.02702702702703" fill="#07fc03" r="0.800000011920929"/>
<circle cx="18.13333333333334" cy="-307.0291891891892" fill="#07fc03" r="0.800000011920929"/>
<circle cx="18.66666666666667" cy="-297.61945945945945" fill="#07fc03" r="0.800000011920929"/>
<circle cx="19.200000000000006" cy="-288.7243243243243" fill="#07fc03" r="0.800000011920929"/>
<circle cx="19.73333333333334" cy="-280.307027027027" fill="#07fc03" r="0.800000011920929"/>
<circle cx="20.266666666666676" cy="-272.36756756756756" fill="#07fc03" r="0.800000011920929"/>
<circle cx="20.800000000000008" cy="-264.7956756756757" fill="#07fc03" r="0.800000011920929"/>
<circle cx="21.333333333333343" cy="-257.6281081081081" fill="#07fc03" r="0.800000011920929"/>
<circle cx="21.866666666666678" cy="-250.79135135135135" fill="#07fc03" r="0.800000011920929"/>
<circle cx="22.400000000000013" cy="-244.32216216216216" fill="#07fc03" r="0.800000011920929"/>
<circle cx="22.933333333333344" cy="-238.11027027027026" fill="#07fc03" r="0.800000011920929"/>
<circle cx="23.46666666666668" cy="-232.19243243243244" fill="#07fc03" r="0.800000011920929"/>
<circle cx="24.000000000000014" cy="-226.56864864864866" fill="#07fc03" r="0.800000011920929"/>
<circle cx="24.533333333333346" cy="-221.1654054054054" fill="#07fc03" r="0.800000011920929"/>
<circle cx="25.066666666666677" cy="-215.9827027027027" fill="#07fc03" r="0.800000011920929"/>
<circle cx="25.600000000000012" cy="-211.0572972972973" fill="#07fc03" r="0.800000011920929"/>
<circle cx="26.133333333333347" cy="-206.31567567567566" fill="#07fc03" r="0.800000011920929"/>
<circle cx="26.66666666666668" cy="-201.75783783783783" fill="#07fc03" r="0.800000011920929"/>
<circle cx="27.200000000000014" cy="-197.38378378378377" fill="#07fc03" r="0.800000011920929"/>
<circle cx="27.733333333333345" cy="-193.15675675675675" fill="#07fc03" r="0.800000011920929"/>
<circle cx="28.26666666666668" cy="-189.1135135135135" fill="#07fc03" r="0.800000011920929"/>
<circle cx="28.80000000000001" cy="-185.2172972972973" fill="#07fc03" r="0.800000011920929"/>
<circle cx="29.333333333333346" cy="-181.4681081081081" fill="#07fc03" r="0.800000011920929"/>
<circle cx="29.86666666666668" cy="-177.86594594594595" fill="#07fc03" r="0.800000011920929"/>
<circle cx="30.400000000000016" cy="-174.37405405405406" fill="#07fc03" r="0.800000011920929"/>
<circle cx="30.93333333333335" cy="-170.99243243243242" fill="#07fc03" r="0.800000011920929"/>
<circle cx="31.466666666666683" cy="-167.72108108108108" fill="#07fc03" r="0.800000011920929"/>
<circle cx="32.00000000000002" cy="-164.59675675675675" fill="#07fc03" r="0.800000011920929"/>
<circle cx="32.53333333333335" cy="-161.54594594594596" fill="#07fc03" r="0.800000011920929"/>
<circle cx="33.066666666666684" cy="-158.6054054054054" fill="#07fc03" r="0.800000011920929"/>
<circle cx="33.600000000000016" cy="-155.77513513513514" fill="#07fc03" r="0.800000011920929"/>
<circle cx="34.133333333333354" cy="-153.01837837837837" fill="#07fc03" r="0.800000011920929"/>
<circle cx="34.666666666666686" cy="-150.33513513513515" fill="#07fc03" r="0.800000011920929"/>
<circle cx="35.20000000000002" cy="-147.76216216216216" fill="#07fc03" r="0.800000011920929"/>
<circle cx="35.733333333333356" cy="-145.22594594594594" fill="#07fc03" r="0.800000011920929"/>
<circle cx="36.26666666666669" cy="-142.8" fill="#07fc03" r="0.800000011920929"/>
<circle cx="36.80000000000002" cy="-140.44756756756757" fill="#07fc03" r="0.800000011920929"/>
<circle cx="37.33333333333335" cy="-138.13189189189188" fill="#07fc03" r="0.800000011920929"/>
<circle cx="37.86666666666669" cy="-135.88972972972974" fill="#07fc03" r="0.800000011920929"/>
<circle cx="38.40000000000002" cy="-133.72108108108108" fill="#07fc03" r="0.800000011920929"/>
<circle cx="38.93333333333336" cy="-131.62594594594594" fill="#07fc03" r="0.800000011920929"/>
<circle cx="39.46666666666669" cy="-129.56756756756758" fill="#07fc03" r="0.800000011920929"/>
<circle cx="40.00000000000003" cy="-127.5827027027027" fill="#07fc03" r="0.800000011920929"/>
<circle cx="40.53333333333336" cy="-125.63459459459459" fill="#07fc03" r="0.800000011920929"/>
<circle cx="41.06666666666669" cy="-123.76" fill="#07fc03" r="0.800000011920929"/>
<circle cx="41.60000000000002" cy="-121.88540540540541" fill="#07fc03" r="0.800000011920929"/>
<circle cx="42.133333333333354" cy="-120.12108108108109" fill="#07fc03" r="0.800000011920929"/>
<circle cx="42.66666666666669" cy="-118.35675675675675" fill="#07fc03" r="0.800000011920929"/>
<circle cx="43.200000000000024" cy="-116.66594594594595" fill="#07fc03" r="0.800000011920929"/>
<circle cx="43.73333333333336" cy="-114.97513513513513" fill="#07fc03" r="0.800000011920929"/>
<circle cx="44.266666666666694" cy="-113.35783783783783" fill="#07fc03" r="0.800000011920929"/>
<circle cx="44.80000000000003" cy="-111.7772972972973" fill="#07fc03" r="0.800000011920929"/>
<circle cx="45.33333333333336" cy="-110.23351351351351" fill="#07fc03" r="0.800000011920929"/>
<circle cx="45.866666666666696" cy="-108.7264864864865" fill="#07fc03" r="0.800000011920929"/>
<circle cx="46.40000000000003" cy="-107.25621621621622" fill="#07fc03" r="0.800000011920929"/>
<circle cx="46.933333333333366" cy="-105.8227027027027" fill="#07fc03" r="0.800000011920929"/>
<circle cx="47.4666666666667" cy="-104.3891891891892" fill="#07fc03" r="0.800000011920929"/>
<circle cx="48.00000000000003" cy="-103.02918918918918" fill="#07fc03" r="0.800000011920929"/>
<circle cx="48.53333333333337" cy="-101.66918918918918" fill="#07fc03" r="0.800000011920929"/>
<circle cx="49.0666666666667" cy="-100.3827027027027" fill="#07fc03" r="0.800000011920929"/>
<circle cx="49.60000000000004" cy="-99.09621621621622" fill="#07fc03" r="0.800000011920929"/>
<circle cx="50.13333333333336" cy="-97.80972972972972" fill="#07fc03" r="0.800000011920929"/>
<circle cx="50.6666666666667" cy="-96.59675675675676" fill="#07fc03" r="0.800000011920929"/>
<circle cx="51.20000000000003" cy="-95.38378378378378" fill="#07fc03" r="0.800000011920929"/>
<circle cx="51.73333333333337" cy="-94.20756756756757" fill="#07fc03" r="0.800000011920929"/>
<circle cx="52.2666666666667" cy="-93.0681081081081" fill="#07fc03" r="0.800000011920929"/>
<circle cx="52.80000000000004" cy="-91.92864864864865" fill="#07fc03" r="0.800000011920929"/>
<circle cx="53.33333333333337" cy="-90.82594594594595" fill="#07fc03" r="0.800000011920929"/>
<circle cx="53.8666666666667" cy="-89.72324324324325" fill="#07fc03" r="0.800000011920929"/>
<circle cx="54.400000000000034" cy="-88.65729729729729" fill="#07fc03" r="0.800000011920929"/>
<circle cx="54.933333333333366" cy="-87.62810810810811" fill="#07fc03" r="0.800000011920929"/>
<circle cx="55.466666666666704" cy="-86.59891891891891" fill="#07fc03" r="0.800000011920929"/>
<circle cx="56.000000000000036" cy="-85.60648648648649" fill="#07fc03" r="0.800000011920929"/>
<circle cx="56.533333333333374" cy="-84.61405405405405" fill="#07fc03" r="0.800000011920929"/>
<circle cx="57.066666666666706" cy="-83.65837837837837" fill="#07fc03" r="0.800000011920929"/>
<circle cx="57.60000000000004" cy="-82.70270270270271" fill="#07fc03" r="0.800000011920929"/>
<circle cx="58.133333333333375" cy="-81.74702702702703" fill="#07fc03" r="0.800000011920929"/>
<circle cx="58.66666666666671" cy="-80.86486486486487" fill="#07fc03" r="0.800000011920929"/>
<circle cx="59.200000000000045" cy="-79.94594594594595" fill="#07fc03" r="0.800000011920929"/>
<circle cx="59.73333333333338" cy="-79.06378378378379" fill="#07fc03" r="0.800000011920929"/>
<circle cx="60.2666666666667" cy="-78.21837837837838" fill="#07fc03" r="0.800000011920929"/>
<circle cx="60.80000000000004" cy="-77.37297297297297" fill="#07fc03" r="0.800000011920929"/>
<circle cx="61.33333333333337" cy="-76.52756756756757" fill="#07fc03" r="0.800000011920929"/>
<circle cx="61.86666666666671" cy="-75.71891891891892" fill="#07fc03" r="0.800000011920929"/>
<circle cx="62.40000000000004" cy="-74.91027027027027" fill="#07fc03" r="0.800000011920929"/>
<circle cx="62.93333333333338" cy="-74.13837837837838" fill="#07fc03" r="0.800000011920929"/>
<circle cx="63.46666666666671" cy="-73.36648648648648" fill="#07fc03" r="0.800000011920929"/>
<circle cx="64.00000000000006" cy="-72.5945945945946" fill="#07fc03" r="0.800000011920929"/>
<circle cx="64.53333333333337" cy="-71.8227027027027" fill="#07fc03" r="0.800000011920929"/>
<circle cx="65.0666666666667" cy="-71.08756756756756" fill="#07fc03" r="0.800000011920929"/>
<circle cx="65.60000000000005" cy="-70.3891891891892" fill="#07fc03" r="0.800000011920929"/>
<circle cx="66.13333333333338" cy="-69.65405405405406" fill="#07fc03" r="0.800000011920929"/>
<circle cx="66.66666666666671" cy="-68.95567567567568" fill="#07fc03" r="0.800000011920929"/>
<circle cx="67.20000000000005" cy="-68.2572972972973" fill="#07fc03" r="0.800000011920929"/>
<circle cx="67.73333333333339" cy="-67.59567567567568" fill="#07fc03" r="0.800000011920929"/>
<circle cx="68.26666666666671" cy="-66.93405405405406" fill="#07fc03" r="0.800000011920929"/>
<circle cx="68.80000000000005" cy="-66.27243243243244" fill="#07fc03" r="0.800000011920929"/>
<circle cx="69.33333333333339" cy="-65.6108108108108" fill="#07fc03" r="0.800000011920929"/>
<circle cx="69.86666666666672" cy="-64.98594594594594" fill="#07fc03" r="0.800000011920929"/>
<circle cx="70.40000000000005" cy="-64.36108108108108" fill="#07fc03" r="0.800000011920929"/>
<circle cx="70.93333333333338" cy="-63.736216216216214" fill="#07fc03" r="0.800000011920929"/>
<circle cx="71.46666666666673" cy="-63.14810810810811" fill="#07fc03" r="0.800000011920929"/>
<circle cx="72.00000000000006" cy="-62.56" fill="#07fc03" r="0.800000011920929"/>
<circle cx="72.53333333333339" cy="-61.97189189189189" fill="#07fc03" r="0.800000011920929"/>
<circle cx="73.06666666666672" cy="-61.383783783783784" fill="#07fc03" r="0.800000011920929"/>
<circle cx="73.60000000000005" cy="-60.795675675675675" fill="#07fc03" r="0.800000011920929"/>
<circle cx="74.13333333333338" cy="-60.244324324324324" fill="#07fc03" r="0.800000011920929"/>
<circle cx="74.66666666666671" cy="-59.692972972972974" fill="#07fc03" r="0.800000011920929"/>
<circle cx="75.20000000000006" cy="-59.141621621621624" fill="#07fc03" r="0.800000011920929"/>
<circle cx="75.73333333333339" cy="-58.59027027027027" fill="#07fc03" r="0.800000011920929"/>
<circle cx="76.26666666666672" cy="-58.075675675675676" fill="#07fc03" r="0.800000011920929"/>
<circle cx="76.80000000000005" cy="-57.56108108108108" fill="#07fc03" r="0.800000011920929"/>
<circle cx="77.33333333333339" cy="-57.04648648648649" fill="#07fc03" r="0.800000011920929"/>
<circle cx="77.86666666666673" cy="-56.531891891891895" fill="#07fc03" r="0.800000011920929"/>
<circle cx="78.40000000000005" cy="-56.0172972972973" fill="#07fc03" r="0.800000011920929"/>
<circle cx="78.9333333333334" cy="-55.53945945945946" fill="#07fc03" r="0.800000011920929"/>
<circle cx="79.46666666666673" cy="-55.02486486486487" fill="#07fc03" r="0.800000011920929"/>
<circle cx="80.00000000000006" cy="-54.54702702702703" fill="#07fc03" r="0.800000011920929"/>
<circle cx="80.53333333333339" cy="-54.10594594594595" fill="#07fc03" r="0.800000011920929"/>
<circle cx="81.06666666666673" cy="-53.62810810810811" fill="#07fc03" r="0.800000011920929"/>
<circle cx="81.60000000000007" cy="-53.15027027027027" fill="#07fc03" r="0.800000011920929"/>
<circle cx="82.13333333333338" cy="-52.70918918918919" fill="#07fc03" r="0.800000011920929"/>
<circle cx="82.66666666666673" cy="-52.26810810810811" fill="#07fc03" r="0.800000011920929"/>
<circle cx="83.20000000000006" cy="-51.82702702702703" fill="#07fc03" r="0.800000011920929"/>
<circle cx="83.7333333333334" cy="-51.38594594594595" fill="#07fc03" r="0.800000011920929"/>
<circle cx="84.26666666666672" cy="-50.94486486486486" fill="#07fc03" r="0.800000011920929"/>
<circle cx="84.80000000000007" cy="-50.50378378378378" fill="#07fc03" r="0.800000011920929"/>
<circle cx="85.3333333333334" cy="-50.09945945945946" fill="#07fc03" r="0.800000011920929"/>
<circle cx="85.86666666666673" cy="-49.69513513513513" fill="#07fc03" r="0.800000011920929"/>
<circle cx="86.40000000000006" cy="-49.29081081081081" fill="#07fc03" r="0.800000011920929"/>
<circle cx="86.9333333333334" cy="-48.88648648648649" fill="#07fc03" r="0.800000011920929"/>
<circle cx="87.46666666666674" cy="-48.48216216216216" fill="#07fc03" r="0.800000011920929"/>
<circle cx="88.00000000000006" cy="-48.07783783783784" fill="#07fc03" r="0.800000011920929"/>
<circle cx="88.5333333333334" cy="-47.71027027027027" fill="#07fc03" r="0.800000011920929"/>
<circle cx="89.06666666666673" cy="-47.30594594594594" fill="#07fc03" r="0.800000011920929"/>
<circle cx="89.60000000000008" cy="-46.93837837837838" fill="#07fc03" r="0.800000011920929"/>
<circle cx="90.1333333333334" cy="-46.57081081081081" fill="#07fc03" r="0.800000011920929"/>
<circle cx="90.66666666666673" cy="-46.166486486486484" fill="#07fc03" r="0.800000011920929"/>
<circle cx="91.20000000000007" cy="-45.835675675675674" fill="#07fc03" r="0.800000011920929"/>
<circle cx="91.7333333333334" cy="-45.468108108108105" fill="#07fc03" r="0.800000011920929"/>
<circle cx="92.26666666666674" cy="-45.10054054054054" fill="#07fc03" r="0.800000011920929"/>
<circle cx="92.80000000000007" cy="-44.73297297297297" fill="#07fc03" r="0.800000011920929"/>
<circle cx="93.33333333333341" cy="-44.40216216216216" fill="#07fc03" r="0.800000011920929"/>
<circle cx="93.86666666666673" cy="-44.07135135135135" fill="#07fc03" r="0.800000011920929"/>
<circle cx="94.40000000000006" cy="-43.703783783783784" fill="#07fc03" r="0.800000011920929"/>
<circle cx="94.93333333333341" cy="-43.372972972972974" fill="#07fc03" r="0.800000011920929"/>
<circle cx="95.46666666666674" cy="-43.042162162162164" fill="#07fc03" r="0.800000011920929"/>
<circle cx="96.00000000000007" cy="-42.711351351351354" fill="#07fc03" r="0.800000011920929"/>
<circle cx="96.5333333333334" cy="-42.380540540540544" fill="#07fc03" r="0.800000011920929"/>
<circle cx="97.06666666666675" cy="-42.086486486486486" fill="#07fc03" r="0.800000011920929"/>
<circle cx="97.60000000000008" cy="-41.755675675675676" fill="#07fc03" r="0.800000011920929"/>
<circle cx="98.13333333333341" cy="-41.461621621621624" fill="#07fc03" r="0.800000011920929"/>
<circle cx="98.66666666666674" cy="-41.130810810810814" fill="#07fc03" r="0.800000011920929"/>
<circle cx="99.20000000000007" cy="-40.836756756756756" fill="#07fc03" r="0.800000011920929"/>
<circle cx="99.7333333333334" cy="-40.542702702702705" fill="#07fc03" r="0.800000011920929"/>
<circle cx="100.26666666666674" cy="-40.211891891891895" fill="#07fc03" r="0.800000011920929"/>
<circle cx="100.80000000000008" cy="-39.91783783783784" fill="#07fc03" r="0.800000011920929"/>
<circle cx="101.33333333333341" cy="-39.623783783783786" fill="#07fc03" r="0.800000011920929"/>
<circle cx="101.86666666666675" cy="-39.36648648648649" fill="#07fc03" r="0.800000011920929"/>
<circle cx="102.40000000000008" cy="-39.072432432432436" fill="#07fc03" r="0.800000011920929"/>
<circle cx="102.93333333333342" cy="-38.77837837837838" fill="#07fc03" r="0.800000011920929"/>
<circle cx="103.46666666666675" cy="-38.48432432432433" fill="#07fc03" r="0.800000011920929"/>
<circle cx="104.00000000000007" cy="-38.22702702702703" fill="#07fc03" r="0.800000011920929"/>
<circle cx="104.53333333333342" cy="-37.932972972972976" fill="#07fc03" r="0.800000011920929"/>
<circle cx="105.06666666666675" cy="-37.67567567567568" fill="#07fc03" r="0.800000011920929"/>
<circle cx="105.60000000000008" cy="-37.41837837837838" fill="#07fc03" r="0.800000011920929"/>
<circle cx="106.13333333333341" cy="-37.16108108108108" fill="#07fc03" r="0.800000011920929"/>
<circle cx="106.66666666666674" cy="-36.86702702702703" fill="#07fc03" r="0.800000011920929"/>
<circle cx="107.20000000000006" cy="-36.60972972972973" fill="#07fc03" r="0.800000011920929"/>
<circle cx="107.73333333333339" cy="-36.35243243243243" fill="#07fc03" r="0.800000011920929"/>
<circle cx="108.26666666666671" cy="-36.09513513513514" fill="#07fc03" r="0.800000011920929"/>
<circle cx="108.80000000000003" cy="-35.8745945945946" fill="#07fc03" r="0.800000011920929"/>
<circle cx="109.33333333333334" cy="-35.6172972972973" fill="#07fc03" r="0.800000011920929"/>
<circle cx="109.86666666666667" cy="-35.36" fill="#07fc03" r="0.800000011920929"/>
<circle cx="110.39999999999999" cy="-35.1027027027027" fill="#07fc03" r="0.800000011920929"/>
<circle cx="110.93333333333332" cy="-34.88216216216216" fill="#07fc03" r="0.800000011920929"/>
<circle cx="111.46666666666664" cy="-34.62486486486487" fill="#07fc03" r="0.800000011920929"/>
<circle cx="111.99999999999996" cy="-34.40432432432432" fill="#07fc03" r="0.800000011920929"/>
<circle cx="112.53333333333327" cy="-34.18378378378378" fill="#07fc03" r="0.800000011920929"/>
<circle cx="113.0666666666666" cy="-33.92648648648649" fill="#07fc03" r="0.800000011920929"/>
<circle cx="113.59999999999992" cy="-33.70594594594595" fill="#07fc03" r="0.800000011920929"/>
<circle cx="114.13333333333324" cy="-33.48540540540541" fill="#07fc03" r="0.800000011920929"/>
<circle cx="114.66666666666657" cy="-33.26486486486486" fill="#07fc03" r="0.800000011920929"/>
<circle cx="115.19999999999989" cy="-33.04432432432432" fill="#07fc03" r="0.800000011920929"/>
<circle cx="115.73333333333322" cy="-32.82378378378378" fill="#07fc03" r="0.800000011920929"/>
<circle cx="116.26666666666652" cy="-32.60324324324324" fill="#07fc03" r="0.800000011920929"/>
<circle cx="116.79999999999986" cy="-32.3827027027027" fill="#07fc03" r="0.800000011920929"/>
<circle cx="117.33333333333319" cy="-32.16216216216216" fill="#07fc03" r="0.800000011920929"/>
<circle cx="117.8666666666665" cy="-31.94162162162162" fill="#07fc03" r="0.800000011920929"/>
<circle cx="118.3999999999998" cy="-31.72108108108108" fill="#07fc03" r="0.800000011920929"/>
<circle cx="118.93333333333314" cy="-31.537297297297297" fill="#07fc03" r="0.800000011920929"/>
<circle cx="119.46666666666647" cy="-31.316756756756757" fill="#07fc03" r="0.800000011920929"/>
<circle cx="119.9999999999998" cy="-31.132972972972972" fill="#07fc03" r="0.800000011920929"/>
<circle cx="120.5333333333331" cy="-30.912432432432432" fill="#07fc03" r="0.800000011920929"/>
<circle cx="121.06666666666644" cy="-30.728648648648647" fill="#07fc03" r="0.800000011920929"/>
<circle cx="121.59999999999975" cy="-30.508108108108107" fill="#07fc03" r="0.800000011920929"/>
<circle cx="122.13333333333308" cy="-30.324324324324323" fill="#07fc03" r="0.800000011920929"/>
<circle cx="122.66666666666639" cy="-30.14054054054054" fill="#07fc03" r="0.800000011920929"/>
<circle cx="123.19999999999972" cy="-29.92" fill="#07fc03" r="0.800000011920929"/>
<circle cx="123.73333333333305" cy="-29.736216216216217" fill="#07fc03" r="0.800000011920929"/>
<circle cx="124.26666666666637" cy="-29.552432432432433" fill="#07fc03" r="0.800000011920929"/>
<circle cx="124.79999999999967" cy="-29.368648648648648" fill="#07fc03" r="0.800000011920929"/>
<circle cx="125.333333333333" cy="-29.184864864864863" fill="#07fc03" r="0.800000011920929"/>
<circle cx="125.86666666666633" cy="-29.001081081081082" fill="#07fc03" r="0.800000011920929"/>
<circle cx="126.39999999999966" cy="-28.817297297297298" fill="#07fc03" r="0.800000011920929"/>
<circle cx="126.93333333333297" cy="-28.633513513513513" fill="#07fc03" r="0.800000011920929"/>
<circle cx="127.4666666666663" cy="-28.44972972972973" fill="#07fc03" r="0.800000011920929"/>
<circle cx="127.99999999999962" cy="-28.265945945945948" fill="#07fc03" r="0.800000011920929"/>
<circle cx="128.53333333333296" cy="-28.082162162162163" fill="#07fc03" r="0.800000011920929"/>
<circle cx="129.06666666666626" cy="-27.935135135135134" fill="#07fc03" r="0.800000011920929"/>
<circle cx="129.59999999999957" cy="-27.751351351351353" fill="#07fc03" r="0.800000011920929"/>
<circle cx="130.1333333333329" cy="-27.56756756756757" fill="#07fc03" r="0.800000011920929"/>
<circle cx="130.66666666666623" cy="-27.42054054054054" fill="#07fc03" r="0.800000011920929"/>
<circle cx="131.19999999999953" cy="-27.23675675675676" fill="#07fc03" r="0.800000011920929"/>
<circle cx="131.73333333333287" cy="-27.08972972972973" fill="#07fc03" r="0.800000011920929"/>
<circle cx="132.2666666666662" cy="-26.905945945945945" fill="#07fc03" r="0.800000011920929"/>
<circle cx="132.79999999999953" cy="-26.75891891891892" fill="#07fc03" r="0.800000011920929"/>
<circle cx="133.33333333333283" cy="-26.575135135135135" fill="#07fc03" r="0.800000011920929"/>
<circle cx="133.86666666666616" cy="-26.42810810810811" fill="#07fc03" r="0.800000011920929"/>
<circle cx="134.3999999999995" cy="-26.244324324324324" fill="#07fc03" r="0.800000011920929"/>
<circle cx="134.93333333333283" cy="-26.0972972972973" fill="#07fc03" r="0.800000011920929"/>
<circle cx="135.46666666666613" cy="-25.95027027027027" fill="#07fc03" r="0.800000011920929"/>
<circle cx="135.99999999999943" cy="-25.803243243243244" fill="#07fc03" r="0.800000011920929"/>
<circle cx="136.53333333333276" cy="-25.61945945945946" fill="#07fc03" r="0.800000011920929"/>
<circle cx="137.0666666666661" cy="-25.47243243243243" fill="#07fc03" r="0.800000011920929"/>
<circle cx="137.5999999999994" cy="-25.325405405405405" fill="#07fc03" r="0.800000011920929"/>
<circle cx="138.13333333333273" cy="-25.17837837837838" fill="#07fc03" r="0.800000011920929"/>
<circle cx="138.66666666666606" cy="-25.03135135135135" fill="#07fc03" r="0.800000011920929"/>
<circle cx="139.1999999999994" cy="-24.884324324324325" fill="#07fc03" r="0.800000011920929"/>
<circle cx="139.7333333333327" cy="-24.737297297297296" fill="#07fc03" r="0.800000011920929"/>
<circle cx="140.26666666666603" cy="-24.59027027027027" fill="#07fc03" r="0.800000011920929"/>
<circle cx="140.79999999999936" cy="-24.443243243243245" fill="#07fc03" r="0.800000011920929"/>
<circle cx="141.3333333333327" cy="-24.296216216216216" fill="#07fc03" r="0.800000011920929"/>
<circle cx="141.866666666666" cy="-24.14918918918919" fill="#07fc03" r="0.800000011920929"/>
<circle cx="142.3999999999993" cy="-24.00216216216216" fill="#07fc03" r="0.800000011920929"/>
<circle cx="142.93333333333263" cy="-23.89189189189189" fill="#07fc03" r="0.800000011920929"/>
<circle cx="143.46666666666596" cy="-23.744864864864866" fill="#07fc03" r="0.800000011920929"/>
<circle cx="143.99999999999926" cy="-23.597837837837837" fill="#07fc03" r="0.800000011920929"/>
<circle cx="144.5333333333326" cy="-23.45081081081081" fill="#07fc03" r="0.800000011920929"/>
<circle cx="145.06666666666592" cy="-23.34054054054054" fill="#07fc03" r="0.800000011920929"/>
<circle cx="145.59999999999926" cy="-23.193513513513512" fill="#07fc03" r="0.800000011920929"/>
<circle cx="146.13333333333256" cy="-23.046486486486486" fill="#07fc03" r="0.800000011920929"/>
<circle cx="146.6666666666659" cy="-22.936216216216216" fill="#07fc03" r="0.800000011920929"/>
<circle cx="147.19999999999922" cy="-22.78918918918919" fill="#07fc03" r="0.800000011920929"/>
<circle cx="147.73333333333255" cy="-22.678918918918917" fill="#07fc03" r="0.800000011920929"/>
<circle cx="148.26666666666586" cy="-22.531891891891892" fill="#07fc03" r="0.800000011920929"/>
<circle cx="148.79999999999916" cy="-22.42162162162162" fill="#07fc03" r="0.800000011920929"/>
<circle cx="149.3333333333325" cy="-22.274594594594596" fill="#07fc03" r="0.800000011920929"/>
<circle cx="149.86666666666582" cy="-22.164324324324323" fill="#07fc03" r="0.800000011920929"/>
<circle cx="150.39999999999912" cy="-22.017297297297297" fill="#07fc03" r="0.800000011920929"/>
<circle cx="150.93333333333246" cy="-21.907027027027027" fill="#07fc03" r="0.800000011920929"/>
<circle cx="151.4666666666658" cy="-21.796756756756757" fill="#07fc03" r="0.800000011920929"/>
<circle cx="151.99999999999912" cy="-21.649729729729728" fill="#07fc03" r="0.800000011920929"/>
<circle cx="152.53333333333242" cy="-21.539459459459458" fill="#07fc03" r="0.800000011920929"/>
<circle cx="153.06666666666575" cy="-21.429189189189188" fill="#07fc03" r="0.800000011920929"/>
<circle cx="153.59999999999908" cy="-21.318918918918918" fill="#07fc03" r="0.800000011920929"/>
<circle cx="154.13333333333242" cy="-21.171891891891892" fill="#07fc03" r="0.800000011920929"/>
<circle cx="154.66666666666572" cy="-21.061621621621622" fill="#07fc03" r="0.800000011920929"/>
<circle cx="155.19999999999902" cy="-20.951351351351352" fill="#07fc03" r="0.800000011920929"/>
<circle cx="155.73333333333235" cy="-20.841081081081082" fill="#07fc03" r="0.800000011920929"/>
<circle cx="156.26666666666569" cy="-20.730810810810812" fill="#07fc03" r="0.800000011920929"/>
<circle cx="156.799999999999" cy="-20.620540540540542" fill="#07fc03" r="0.800000011920929"/>
<circle cx="157.33333333333232" cy="-20.51027027027027" fill="#07fc03" r="0.800000011920929"/>
<circle cx="157.86666666666565" cy="-20.363243243243243" fill="#07fc03" r="0.800000011920929"/>
<circle cx="158.39999999999898" cy="-20.252972972972973" fill="#07fc03" r="0.800000011920929"/>
<circle cx="158.93333333333229" cy="-20.142702702702703" fill="#07fc03" r="0.800000011920929"/>
<circle cx="159.46666666666562" cy="-20.032432432432433" fill="#07fc03" r="0.800000011920929"/>
<circle cx="159.99999999999895" cy="-19.95891891891892" fill="#07fc03" r="0.800000011920929"/>
<circle cx="160.53333333333228" cy="-19.84864864864865" fill="#07fc03" r="0.800000011920929"/>
<circle cx="161.06666666666558" cy="-19.73837837837838" fill="#07fc03" r="0.800000011920929"/>
<circle cx="161.5999999999989" cy="-19.62810810810811" fill="#07fc03" r="0.800000011920929"/>
<circle cx="162.13333333333222" cy="-19.51783783783784" fill="#07fc03" r="0.800000011920929"/>
<circle cx="162.66666666666555" cy="-19.40756756756757" fill="#07fc03" r="0.800000011920929"/>
<circle cx="163.19999999999885" cy="-19.2972972972973" fill="#07fc03" r="0.800000011920929"/>
<circle cx="163.73333333333218" cy="-19.18702702702703" fill="#07fc03" r="0.800000011920929"/>
<circle cx="164.26666666666551" cy="-19.113513513513514" fill="#07fc03" r="0.800000011920929"/>
<circle cx="164.79999999999885" cy="-19.003243243243244" fill="#07fc03" r="0.800000011920929"/>
<circle cx="165.33333333333215" cy="-18.892972972972974" fill="#07fc03" r="0.800000011920929"/>
<circle cx="165.86666666666548" cy="-18.782702702702704" fill="#07fc03" r="0.800000011920929"/>
<circle cx="166.3999999999988" cy="-18.70918918918919" fill="#07fc03" r="0.800000011920929"/>
<circle cx="166.93333333333214" cy="-18.59891891891892" fill="#07fc03" r="0.800000011920929"/>
<circle cx="167.46666666666545" cy="-18.48864864864865" fill="#07fc03" r="0.800000011920929"/>
<circle cx="167.99999999999875" cy="-18.415135135135134" fill="#07fc03" r="0.800000011920929"/>
<circle cx="168.53333333333208" cy="-18.304864864864864" fill="#07fc03" r="0.800000011920929"/>
<circle cx="169.0666666666654" cy="-18.194594594594594" fill="#07fc03" r="0.800000011920929"/>
<circle cx="169.59999999999872" cy="-18.12108108108108" fill="#07fc03" r="0.800000011920929"/>
<circle cx="170.13333333333205" cy="-18.01081081081081" fill="#07fc03" r="0.800000011920929"/>
<circle cx="170.66666666666538" cy="-17.9372972972973" fill="#07fc03" r="0.800000011920929"/>
<circle cx="171.1999999999987" cy="-17.82702702702703" fill="#07fc03" r="0.800000011920929"/>
<circle cx="171.733333333332" cy="-17.716756756756755" fill="#07fc03" r="0.800000011920929"/>
<circle cx="172.26666666666534" cy="-17.643243243243244" fill="#07fc03" r="0.800000011920929"/>
<circle cx="172.79999999999868" cy="-17.532972972972974" fill="#07fc03" r="0.800000011920929"/>
<circle cx="173.333333333332" cy="-17.45945945945946" fill="#07fc03" r="0.800000011920929"/>
<circle cx="173.8666666666653" cy="-17.385945945945945" fill="#07fc03" r="0.800000011920929"/>
<circle cx="174.3999999999986" cy="-17.275675675675675" fill="#07fc03" r="0.800000011920929"/>
<circle cx="174.93333333333194" cy="-17.20216216216216" fill="#07fc03" r="0.800000011920929"/>
<circle cx="175.46666666666528" cy="-17.09189189189189" fill="#07fc03" r="0.800000011920929"/>
<circle cx="175.99999999999858" cy="-17.01837837837838" fill="#07fc03" r="0.800000011920929"/>
<circle cx="176.5333333333319" cy="-16.944864864864865" fill="#07fc03" r="0.800000011920929"/>
<circle cx="177.06666666666524" cy="-16.834594594594595" fill="#07fc03" r="0.800000011920929"/>
<circle cx="177.59999999999857" cy="-16.76108108108108" fill="#07fc03" r="0.800000011920929"/>
<circle cx="178.13333333333188" cy="-16.65081081081081" fill="#07fc03" r="0.800000011920929"/>
<circle cx="178.6666666666652" cy="-16.577297297297296" fill="#07fc03" r="0.800000011920929"/>
<circle cx="179.19999999999854" cy="-16.503783783783785" fill="#07fc03" r="0.800000011920929"/>
<circle cx="179.73333333333187" cy="-16.43027027027027" fill="#07fc03" r="0.800000011920929"/>
<circle cx="180.26666666666517" cy="-16.32" fill="#07fc03" r="0.800000011920929"/>
<circle cx="180.79999999999848" cy="-16.246486486486486" fill="#07fc03" r="0.800000011920929"/>
<circle cx="181.3333333333318" cy="-16.17297297297297" fill="#07fc03" r="0.800000011920929"/>
<circle cx="181.86666666666514" cy="-16.09945945945946" fill="#07fc03" r="0.800000011920929"/>
<circle cx="182.39999999999844" cy="-15.989189189189188" fill="#07fc03" r="0.800000011920929"/>
<circle cx="182.93333333333177" cy="-15.915675675675676" fill="#07fc03" r="0.800000011920929"/>
<circle cx="183.4666666666651" cy="-15.842162162162163" fill="#07fc03" r="0.800000011920929"/>
<circle cx="183.99999999999844" cy="-15.768648648648648" fill="#07fc03" r="0.800000011920929"/>
<circle cx="184.53333333333174" cy="-15.695135135135136" fill="#07fc03" r="0.800000011920929"/>
<circle cx="185.06666666666507" cy="-15.621621621621621" fill="#07fc03" r="0.800000011920929"/>
<circle cx="185.5999999999984" cy="-15.548108108108108" fill="#07fc03" r="0.800000011920929"/>
<circle cx="186.13333333333173" cy="-15.437837837837838" fill="#07fc03" r="0.800000011920929"/>
<circle cx="186.66666666666504" cy="-15.364324324324324" fill="#07fc03" r="0.800000011920929"/>
<circle cx="187.19999999999834" cy="-15.290810810810811" fill="#07fc03" r="0.800000011920929"/>
<circle cx="187.73333333333167" cy="-15.217297297297296" fill="#07fc03" r="0.800000011920929"/>
<circle cx="188.266666666665" cy="-15.143783783783784" fill="#07fc03" r="0.800000011920929"/>
<circle cx="188.7999999999983" cy="-15.07027027027027" fill="#07fc03" r="0.800000011920929"/>
<circle cx="189.33333333333164" cy="-14.996756756756756" fill="#07fc03" r="0.800000011920929"/>
<circle cx="189.86666666666497" cy="-14.923243243243244" fill="#07fc03" r="0.800000011920929"/>
<circle cx="190.3999999999983" cy="-14.849729729729729" fill="#07fc03" r="0.800000011920929"/>
<circle cx="190.9333333333316" cy="-14.776216216216216" fill="#07fc03" r="0.800000011920929"/>
<circle cx="191.46666666666493" cy="-14.702702702702704" fill="#07fc03" r="0.800000011920929"/>
<circle cx="191.99999999999827" cy="-14.629189189189189" fill="#07fc03" r="0.800000011920929"/>
<circle cx="192.5333333333316" cy="-14.555675675675676" fill="#07fc03" r="0.800000011920929"/>
<circle cx="193.0666666666649" cy="-14.482162162162162" fill="#07fc03" r="0.800000011920929"/>
<circle cx="193.5999999999982" cy="-14.408648648648649" fill="#07fc03" r="0.800000011920929"/>
<circle cx="194.13333333333154" cy="-14.335135135135134" fill="#07fc03" r="0.800000011920929"/>
<circle cx="194.66666666666487" cy="-14.298378378378379" fill="#07fc03" r="0.800000011920929"/>
<circle cx="195.19999999999817" cy="-14.224864864864864" fill="#07fc03" r="0.800000011920929"/>
<circle cx="195.7333333333315" cy="-14.151351351351352" fill="#07fc03" r="0.800000011920929"/>
<circle cx="196.26666666666483" cy="-14.077837837837837" fill="#07fc03" r="0.800000011920929"/>
<circle cx="196.79999999999816" cy="-14.004324324324324" fill="#07fc03" r="0.800000011920929"/>
<circle cx="197.33333333333147" cy="-13.930810810810812" fill="#07fc03" r="0.800000011920929"/>
<circle cx="197.8666666666648" cy="-13.857297297297297" fill="#07fc03" r="0.800000011920929"/>
<circle cx="198.39999999999813" cy="-13.82054054054054" fill="#07fc03" r="0.800000011920929"/>
<circle cx="198.93333333333146" cy="-13.747027027027027" fill="#07fc03" r="0.800000011920929"/>
<circle cx="199.46666666666476" cy="-13.673513513513514" fill="#07fc03" r="0.800000011920929"/>
<circle cx="199.99999999999807" cy="-13.6" fill="#07fc03" r="0.800000011920929"/>
<circle cx="200.5333333333314" cy="-13.526486486486487" fill="#07fc03" r="0.800000011920929"/>
<circle cx="201.06666666666473" cy="-13.48972972972973" fill="#07fc03" r="0.800000011920929"/>
<circle cx="201.59999999999803" cy="-13.416216216216217" fill="#07fc03" r="0.800000011920929"/>
<circle cx="202.13333333333136" cy="-13.342702702702702" fill="#07fc03" r="0.800000011920929"/>
<circle cx="202.6666666666647" cy="-13.305945945945947" fill="#07fc03" r="0.800000011920929"/>
<circle cx="203.19999999999803" cy="-13.232432432432432" fill="#07fc03" r="0.800000011920929"/>
<circle cx="203.73333333333133" cy="-13.15891891891892" fill="#07fc03" r="0.800000011920929"/>
<circle cx="204.26666666666466" cy="-13.085405405405405" fill="#07fc03" r="0.800000011920929"/>
<circle cx="204.799999999998" cy="-13.04864864864865" fill="#07fc03" r="0.800000011920929"/>
<circle cx="205.33333333333132" cy="-12.975135135135135" fill="#07fc03" r="0.800000011920929"/>
<circle cx="205.86666666666463" cy="-12.901621621621622" fill="#07fc03" r="0.800000011920929"/>
<circle cx="206.39999999999793" cy="-12.864864864864865" fill="#07fc03" r="0.800000011920929"/>
<circle cx="206.93333333333126" cy="-12.791351351351352" fill="#07fc03" r="0.800000011920929"/>
<circle cx="207.4666666666646" cy="-12.717837837837838" fill="#07fc03" r="0.800000011920929"/>
<circle cx="207.9999999999979" cy="-12.68108108108108" fill="#07fc03" r="0.800000011920929"/>
<circle cx="208.53333333333123" cy="-12.607567567567568" fill="#07fc03" r="0.800000011920929"/>
<circle cx="209.06666666666456" cy="-12.57081081081081" fill="#07fc03" r="0.800000011920929"/>
<circle cx="209.5999999999979" cy="-12.497297297297298" fill="#07fc03" r="0.800000011920929"/>
<circle cx="210.1333333333312" cy="-12.423783783783783" fill="#07fc03" r="0.800000011920929"/>
<circle cx="210.66666666666453" cy="-12.387027027027028" fill="#07fc03" r="0.800000011920929"/>
<circle cx="211.19999999999786" cy="-12.313513513513513" fill="#07fc03" r="0.800000011920929"/>
<circle cx="211.7333333333312" cy="-12.276756756756757" fill="#07fc03" r="0.800000011920929"/>
<circle cx="212.2666666666645" cy="-12.203243243243243" fill="#07fc03" r="0.800000011920929"/>
<circle cx="212.7999999999978" cy="-12.166486486486486" fill="#07fc03" r="0.800000011920929"/>
<circle cx="213.33333333333113" cy="-12.092972972972973" fill="#07fc03" r="0.800000011920929"/>
<circle cx="213.86666666666446" cy="-12.056216216216216" fill="#07fc03" r="0.800000011920929"/>
<circle cx="214.3999999999978" cy="-11.982702702702703" fill="#07fc03" r="0.800000011920929"/>
<circle cx="214.93333333333112" cy="-11.945945945945946" fill="#07fc03" r="0.800000011920929"/>
<circle cx="215.46666666666445" cy="-11.872432432432433" fill="#07fc03" r="0.800000011920929"/>
<circle cx="215.99999999999778" cy="-11.835675675675676" fill="#07fc03" r="0.800000011920929"/>
<circle cx="216.5333333333311" cy="-11.762162162162163" fill="#07fc03" r="0.800000011920929"/>
<circle cx="217.06666666666442" cy="-11.725405405405406" fill="#07fc03" r="0.800000011920929"/>
<circle cx="217.59999999999775" cy="-11.651891891891891" fill="#07fc03" r="0.800000011920929"/>
<circle cx="218.13333333333105" cy="-11.615135135135136" fill="#07fc03" r="0.800000011920929"/>
<circle cx="218.66666666666436" cy="-11.541621621621621" fill="#07fc03" r="0.800000011920929"/>
<circle cx="219.1999999999977" cy="-11.504864864864865" fill="#07fc03" r="0.800000011920929"/>
<circle cx="219.73333333333102" cy="-11.431351351351351" fill="#07fc03" r="0.800000011920929"/>
<circle cx="220.26666666666435" cy="-11.394594594594595" fill="#07fc03" r="0.800000011920929"/>
<circle cx="220.79999999999765" cy="-11.357837837837838" fill="#07fc03" r="0.800000011920929"/>
<circle cx="221.33333333333098" cy="-11.284324324324324" fill="#07fc03" r="0.800000011920929"/>
<circle cx="221.86666666666432" cy="-11.247567567567568" fill="#07fc03" r="0.800000011920929"/>
<circle cx="222.39999999999762" cy="-11.174054054054054" fill="#07fc03" r="0.800000011920929"/>
<circle cx="222.93333333333095" cy="-11.137297297297298" fill="#07fc03" r="0.800000011920929"/>
<circle cx="223.46666666666428" cy="-11.10054054054054" fill="#07fc03" r="0.800000011920929"/>
<circle cx="223.9999999999976" cy="-11.027027027027026" fill="#07fc03" r="0.800000011920929"/>
<circle cx="224.53333333333092" cy="-10.99027027027027" fill="#07fc03" r="0.800000011920929"/>
<circle cx="225.06666666666422" cy="-10.953513513513514" fill="#07fc03" r="0.800000011920929"/>
<circle cx="225.59999999999755" cy="-10.88" fill="#07fc03" r="0.800000011920929"/>
<circle cx="226.13333333333088" cy="-10.843243243243244" fill="#07fc03" r="0.800000011920929"/>
<circle cx="226.66666666666418" cy="-10.806486486486486" fill="#07fc03" r="0.800000011920929"/>
<circle cx="227.19999999999752" cy="-10.732972972972973" fill="#07fc03" r="0.800000011920929"/>
<circle cx="227.73333333333085" cy="-10.696216216216216" fill="#07fc03" r="0.800000011920929"/>
<circle cx="228.26666666666415" cy="-10.659459459459459" fill="#07fc03" r="0.800000011920929"/>
<circle cx="228.7999999999975" cy="-10.585945945945946" fill="#07fc03" r="0.800000011920929"/>
<circle cx="229.3333333333308" cy="-10.549189189189189" fill="#07fc03" r="0.800000011920929"/>
<circle cx="229.86666666666417" cy="-10.512432432432432" fill="#07fc03" r="0.800000011920929"/>
<circle cx="230.39999999999748" cy="-10.475675675675676" fill="#07fc03" r="0.800000011920929"/>
<circle cx="230.93333333333078" cy="-10.402162162162162" fill="#07fc03" r="0.800000011920929"/>
<circle cx="231.4666666666641" cy="-10.365405405405406" fill="#07fc03" r="0.800000011920929"/>
<circle cx="231.9999999999974" cy="-10.328648648648649" fill="#07fc03" r="0.800000011920929"/>
<circle cx="232.53333333333072" cy="-10.291891891891892" fill="#07fc03" r="0.800000011920929"/>
<circle cx="233.06666666666408" cy="-10.218378378378379" fill="#07fc03" r="0.800000011920929"/>
<circle cx="233.59999999999738" cy="-10.181621621621622" fill="#07fc03" r="0.800000011920929"/>
<circle cx="234.13333333333068" cy="-10.144864864864864" fill="#07fc03" r="0.800000011920929"/>
<circle cx="234.66666666666404" cy="-10.108108108108109" fill="#07fc03" r="0.800000011920929"/>
<circle cx="235.19999999999735" cy="-10.071351351351352" fill="#07fc03" r="0.800000011920929"/>
<circle cx="235.7333333333307" cy="-9.997837837837837" fill="#07fc03" r="0.800000011920929"/>
<circle cx="236.266666666664" cy="-9.961081081081081" fill="#07fc03" r="0.800000011920929"/>
<circle cx="236.7999999999973" cy="-9.924324324324324" fill="#07fc03" r="0.800000011920929"/>
<circle cx="237.33333333333064" cy="-9.887567567567567" fill="#07fc03" r="0.800000011920929"/>
<circle cx="237.86666666666395" cy="-9.850810810810811" fill="#07fc03" r="0.800000011920929"/>
<circle cx="238.3999999999973" cy="-9.777297297297297" fill="#07fc03" r="0.800000011920929"/>
<circle cx="238.9333333333306" cy="-9.740540540540541" fill="#07fc03" r="0.800000011920929"/>
<circle cx="239.4666666666639" cy="-9.703783783783784" fill="#07fc03" r="0.800000011920929"/>
<circle cx="239.99999999999727" cy="-9.667027027027027" fill="#07fc03" r="0.800000011920929"/>
<circle cx="240.53333333333057" cy="-9.63027027027027" fill="#07fc03" r="0.800000011920929"/>
<circle cx="241.06666666666388" cy="-9.593513513513514" fill="#07fc03" r="0.800000011920929"/>
<circle cx="241.59999999999724" cy="-9.556756756756757" fill="#07fc03" r="0.800000011920929"/>
<circle cx="242.13333333333054" cy="-9.483243243243244" fill="#07fc03" r="0.800000011920929"/>
<circle cx="242.66666666666384" cy="-9.446486486486487" fill="#07fc03" r="0.800000011920929"/>
<circle cx="243.1999999999972" cy="-9.40972972972973" fill="#07fc03" r="0.800000011920929"/>
<circle cx="243.7333333333305" cy="-9.372972972972972" fill="#07fc03" r="0.800000011920929"/>
<circle cx="244.26666666666384" cy="-9.336216216216217" fill="#07fc03" r="0.800000011920929"/>
<circle cx="244.79999999999714" cy="-9.29945945945946" fill="#07fc03" r="0.800000011920929"/>
<circle cx="245.33333333333044" cy="-9.262702702702702" fill="#07fc03" r="0.800000011920929"/>
<circle cx="245.8666666666638" cy="-9.225945945945947" fill="#07fc03" r="0.800000011920929"/>
<circle cx="246.3999999999971" cy="-9.18918918918919" fill="#07fc03" r="0.800000011920929"/>
<circle cx="246.93333333333047" cy="-9.152432432432432" fill="#07fc03" r="0.800000011920929"/>
<circle cx="247.46666666666377" cy="-9.115675675675675" fill="#07fc03" r="0.800000011920929"/>
<circle cx="247.99999999999707" cy="-9.07891891891892" fill="#07fc03" r="0.800000011920929"/>
<circle cx="248.53333333333043" cy="-9.005405405405405" fill="#07fc03" r="0.800000011920929"/>
<circle cx="249.06666666666374" cy="-8.96864864864865" fill="#07fc03" r="0.800000011920929"/>
<circle cx="249.59999999999704" cy="-8.931891891891892" fill="#07fc03" r="0.800000011920929"/>
<circle cx="250.13333333333037" cy="-8.895135135135135" fill="#07fc03" r="0.800000011920929"/>
<circle cx="250.66666666666367" cy="-8.858378378378378" fill="#07fc03" r="0.800000011920929"/>
<circle cx="251.19999999999698" cy="-8.821621621621622" fill="#07fc03" r="0.800000011920929"/>
<circle cx="251.73333333333034" cy="-8.784864864864865" fill="#07fc03" r="0.800000011920929"/>
<circle cx="252.26666666666364" cy="-8.748108108108108" fill="#07fc03" r="0.800000011920929"/>
<circle cx="252.799999999997" cy="-8.711351351351352" fill="#07fc03" r="0.800000011920929"/>
<circle cx="253.3333333333303" cy="-8.674594594594595" fill="#07fc03" r="0.800000011920929"/>
<circle cx="253.8666666666636" cy="-8.637837837837838" fill="#07fc03" r="0.800000011920929"/>
<circle cx="254.39999999999696" cy="-8.60108108108108" fill="#07fc03" r="0.800000011920929"/>
<circle cx="254.93333333333027" cy="-8.564324324324325" fill="#07fc03" r="0.800000011920929"/>
<circle cx="255.46666666666363" cy="-8.527567567567568" fill="#07fc03" r="0.800000011920929"/>
<circle cx="255.99999999999693" cy="-8.49081081081081" fill="#07fc03" r="0.800000011920929"/>
<circle cx="256.53333333333023" cy="-8.454054054054055" fill="#07fc03" r="0.800000011920929"/>
<circle cx="257.0666666666636" cy="-8.417297297297297" fill="#07fc03" r="0.800000011920929"/>
<circle cx="257.5999999999969" cy="-8.38054054054054" fill="#07fc03" r="0.800000011920929"/>
<circle cx="258.1333333333302" cy="-8.343783783783783" fill="#07fc03" r="0.800000011920929"/>
<circle cx="258.66666666666356" cy="-8.343783783783783" fill="#07fc03" r="0.800000011920929"/>
<circle cx="259.19999999999686" cy="-8.307027027027027" fill="#07fc03" r="0.800000011920929"/>
<circle cx="259.73333333333017" cy="-8.27027027027027" fill="#07fc03" r="0.800000011920929"/>
<circle cx="260.26666666666347" cy="-8.233513513513513" fill="#07fc03" r="0.800000011920929"/>
<circle cx="260.79999999999677" cy="-8.196756756756757" fill="#07fc03" r="0.800000011920929"/>
<circle cx="261.33333333333013" cy="-8.16" fill="#07fc03" r="0.800000011920929"/>
<circle cx="261.86666666666343" cy="-8.123243243243243" fill="#07fc03" r="0.800000011920929"/>
<circle cx="262.39999999999674" cy="-8.086486486486486" fill="#07fc03" r="0.800000011920929"/>
<circle cx="262.9333333333301" cy="-8.04972972972973" fill="#07fc03" r="0.800000011920929"/>
<circle cx="263.4666666666634" cy="-8.012972972972973" fill="#07fc03" r="0.800000011920929"/>
<circle cx="263.99999999999676" cy="-7.9762162162162165" fill="#07fc03" r="0.800000011920929"/>
<circle cx="264.53333333333006" cy="-7.939459459459459" fill="#07fc03" r="0.800000011920929"/>
<circle cx="265.06666666666337" cy="-7.939459459459459" fill="#07fc03" r="0.800000011920929"/>
<circle cx="265.5999999999967" cy="-7.902702702702703" fill="#07fc03" r="0.800000011920929"/>
<circle cx="266.13333333333003" cy="-7.8659459459459455" fill="#07fc03" r="0.800000011920929"/>
<circle cx="266.66666666666333" cy="-7.829189189189189" fill="#07fc03" r="0.800000011920929"/>
<circle cx="267.1999999999967" cy="-7.792432432432433" fill="#07fc03" r="0.800000011920929"/>
<circle cx="267.73333333333" cy="-7.7556756756756755" fill="#07fc03" r="0.800000011920929"/>
<circle cx="268.2666666666633" cy="-7.718918918918919" fill="#07fc03" r="0.800000011920929"/>
<circle cx="268.79999999999666" cy="-7.682162162162162" fill="#07fc03" r="0.800000011920929"/>
<circle cx="269.33333333332996" cy="-7.682162162162162" fill="#07fc03" r="0.800000011920929"/>
<circle cx="269.8666666666633" cy="-7.6454054054054055" fill="#07fc03" r="0.800000011920929"/>
<circle cx="270.3999999999966" cy="-7.608648648648648" fill="#07fc03" r="0.800000011920929"/>
<circle cx="270.9333333333299" cy="-7.571891891891892" fill="#07fc03" r="0.800000011920929"/>
<circle cx="271.4666666666633" cy="-7.535135135135135" fill="#07fc03" r="0.800000011920929"/>
<circle cx="271.9999999999966" cy="-7.498378378378378" fill="#07fc03" r="0.800000011920929"/>
<circle cx="272.5333333333299" cy="-7.498378378378378" fill="#07fc03" r="0.800000011920929"/>
<circle cx="273.0666666666632" cy="-7.461621621621622" fill="#07fc03" r="0.800000011920929"/>
<circle cx="273.5999999999965" cy="-7.4248648648648645" fill="#07fc03" r="0.800000011920929"/>
<circle cx="274.13333333332986" cy="-7.388108108108108" fill="#07fc03" r="0.800000011920929"/>
<circle cx="274.66666666666316" cy="-7.351351351351352" fill="#07fc03" r="0.800000011920929"/>
<circle cx="275.19999999999646" cy="-7.3145945945945945" fill="#07fc03" r="0.800000011920929"/>
<circle cx="275.7333333333298" cy="-7.3145945945945945" fill="#07fc03" r="0.800000011920929"/>
<circle cx="276.2666666666631" cy="-7.277837837837838" fill="#07fc03" r="0.800000011920929"/>
<circle cx="276.79999999999643" cy="-7.241081081081081" fill="#07fc03" r="0.800000011920929"/>
<circle cx="277.3333333333298" cy="-7.2043243243243245" fill="#07fc03" r="0.800000011920929"/>
<circle cx="277.8666666666631" cy="-7.167567567567567" fill="#07fc03" r="0.800000011920929"/>
<circle cx="278.39999999999645" cy="-7.167567567567567" fill="#07fc03" r="0.800000011920929"/>
<circle cx="278.93333333332976" cy="-7.130810810810811" fill="#07fc03" r="0.800000011920929"/>
<circle cx="279.46666666666306" cy="-7.094054054054054" fill="#07fc03" r="0.800000011920929"/>
<circle cx="279.9999999999964" cy="-7.057297297297297" fill="#07fc03" r="0.800000011920929"/>
<circle cx="280.5333333333297" cy="-7.057297297297297" fill="#07fc03" r="0.800000011920929"/>
<circle cx="281.0666666666631" cy="-7.020540540540541" fill="#07fc03" r="0.800000011920929"/>
<circle cx="281.5999999999964" cy="-6.9837837837837835" fill="#07fc03" r="0.800000011920929"/>
<circle cx="282.1333333333297" cy="-6.947027027027027" fill="#07fc03" r="0.800000011920929"/>
<circle cx="282.66666666666305" cy="-6.947027027027027" fill="#07fc03" r="0.800000011920929"/>
<circle cx="283.19999999999635" cy="-6.91027027027027" fill="#07fc03" r="0.800000011920929"/>
<circle cx="283.73333333332965" cy="-6.8735135135135135" fill="#07fc03" r="0.800000011920929"/>
<circle cx="284.266666666663" cy="-6.836756756756757" fill="#07fc03" r="0.800000011920929"/>
<circle cx="284.7999999999963" cy="-6.836756756756757" fill="#07fc03" r="0.800000011920929"/>
<circle cx="285.3333333333296" cy="-6.8" fill="#07fc03" r="0.800000011920929"/>
<circle cx="285.8666666666629" cy="-6.763243243243243" fill="#07fc03" r="0.800000011920929"/>
<circle cx="286.3999999999962" cy="-6.726486486486486" fill="#07fc03" r="0.800000011920929"/>
<circle cx="286.9333333333296" cy="-6.726486486486486" fill="#07fc03" r="0.800000011920929"/>
<circle cx="287.4666666666629" cy="-6.68972972972973" fill="#07fc03" r="0.800000011920929"/>
<circle cx="287.9999999999962" cy="-6.652972972972973" fill="#07fc03" r="0.800000011920929"/>
<circle cx="288.53333333332955" cy="-6.652972972972973" fill="#07fc03" r="0.800000011920929"/>
<circle cx="289.06666666666285" cy="-6.616216216216216" fill="#07fc03" r="0.800000011920929"/>
<circle cx="289.5999999999962" cy="-6.57945945945946" fill="#07fc03" r="0.800000011920929"/>
<circle cx="290.1333333333295" cy="-6.5427027027027025" fill="#07fc03" r="0.800000011920929"/>
<circle cx="290.6666666666628" cy="-6.5427027027027025" fill="#07fc03" r="0.800000011920929"/>
<circle cx="291.1999999999962" cy="-6.505945945945946" fill="#07fc03" r="0.800000011920929"/>
<circle cx="291.7333333333295" cy="-6.469189189189189" fill="#07fc03" r="0.800000011920929"/>
<circle cx="292.2666666666628" cy="-6.469189189189189" fill="#07fc03" r="0.800000011920929"/>
<circle cx="292.79999999999615" cy="-6.4324324324324325" fill="#07fc03" r="0.800000011920929"/>
<circle cx="293.33333333332945" cy="-6.395675675675676" fill="#07fc03" r="0.800000011920929"/>
<circle cx="293.86666666666275" cy="-6.395675675675676" fill="#07fc03" r="0.800000011920929"/>
<circle cx="294.3999999999961" cy="-6.358918918918919" fill="#07fc03" r="0.800000011920929"/>
<circle cx="294.9333333333294" cy="-6.322162162162162" fill="#07fc03" r="0.800000011920929"/>
<circle cx="295.4666666666628" cy="-6.322162162162162" fill="#07fc03" r="0.800000011920929"/>
<circle cx="295.9999999999961" cy="-6.285405405405405" fill="#07fc03" r="0.800000011920929"/>
<circle cx="296.5333333333294" cy="-6.248648648648649" fill="#07fc03" r="0.800000011920929"/>
<circle cx="297.06666666666274" cy="-6.248648648648649" fill="#07fc03" r="0.800000011920929"/>
<circle cx="297.59999999999604" cy="-6.2118918918918915" fill="#07fc03" r="0.800000011920929"/>
<circle cx="298.13333333332935" cy="-6.175135135135135" fill="#07fc03" r="0.800000011920929"/>
<circle cx="298.66666666666265" cy="-6.175135135135135" fill="#07fc03" r="0.800000011920929"/>
<circle cx="299.19999999999595" cy="-6.138378378378379" fill="#07fc03" r="0.800000011920929"/>
<circle cx="299.7333333333293" cy="-6.1016216216216215" fill="#07fc03" r="0.800000011920929"/>
<circle cx="300.2666666666626" cy="-6.1016216216216215" fill="#07fc03" r="0.800000011920929"/>
<circle cx="300.7999999999959" cy="-6.064864864864865" fill="#07fc03" r="0.800000011920929"/>
<circle cx="301.3333333333293" cy="-6.028108108108108" fill="#07fc03" r="0.800000011920929"/>
<circle cx="301.8666666666626" cy="-6.028108108108108" fill="#07fc03" r="0.800000011920929"/>
<circle cx="302.3999999999959" cy="-5.991351351351351" fill="#07fc03" r="0.800000011920929"/>
<circle cx="302.93333333332924" cy="-5.991351351351351" fill="#07fc03" r="0.800000011920929"/>
<circle cx="303.46666666666255" cy="-5.954594594594594" fill="#07fc03" r="0.800000011920929"/>
<circle cx="303.9999999999959" cy="-5.917837837837838" fill="#07fc03" r="0.800000011920929"/>
<circle cx="304.5333333333292" cy="-5.917837837837838" fill="#07fc03" r="0.800000011920929"/>
<circle cx="305.0666666666625" cy="-5.881081081081081" fill="#07fc03" r="0.800000011920929"/>
<circle cx="305.5999999999959" cy="-5.881081081081081" fill="#07fc03" r="0.800000011920929"/>
<circle cx="306.1333333333292" cy="-5.844324324324324" fill="#07fc03" r="0.800000011920929"/>
<circle cx="306.66666666666254" cy="-5.807567567567568" fill="#07fc03" r="0.800000011920929"/>
<circle cx="307.19999999999584" cy="-5.807567567567568" fill="#07fc03" r="0.800000011920929"/>
<circle cx="307.73333333332914" cy="-5.7708108108108105" fill="#07fc03" r="0.800000011920929"/>
<circle cx="308.2666666666625" cy="-5.7708108108108105" fill="#07fc03" r="0.800000011920929"/>
<circle cx="308.7999999999958" cy="-5.734054054054054" fill="#07fc03" r="0.800000011920929"/>
<circle cx="309.3333333333291" cy="-5.697297297297298" fill="#07fc03" r="0.800000011920929"/>
<circle cx="309.86666666666247" cy="-5.697297297297298" fill="#07fc03" r="0.800000011920929"/>
<circle cx="310.39999999999577" cy="-5.6605405405405405" fill="#07fc03" r="0.800000011920929"/>
<circle cx="310.9333333333291" cy="-5.6605405405405405" fill="#07fc03" r="0.800000011920929"/>
<circle cx="311.4666666666624" cy="-5.623783783783784" fill="#07fc03" r="0.800000011920929"/>
<circle cx="311.9999999999957" cy="-5.587027027027027" fill="#07fc03" r="0.800000011920929"/>
<circle cx="312.53333333332904" cy="-5.587027027027027" fill="#07fc03" r="0.800000011920929"/>
<circle cx="313.06666666666234" cy="-5.55027027027027" fill="#07fc03" r="0.800000011920929"/>
<circle cx="313.59999999999565" cy="-5.55027027027027" fill="#07fc03" r="0.800000011920929"/>
<circle cx="314.133333333329" cy="-5.513513513513513" fill="#07fc03" r="0.800000011920929"/>
<circle cx="314.6666666666623" cy="-5.513513513513513" fill="#07fc03" r="0.800000011920929"/>
<circle cx="315.19999999999567" cy="-5.476756756756757" fill="#07fc03" r="0.800000011920929"/>
<circle cx="315.73333333332897" cy="-5.476756756756757" fill="#07fc03" r="0.800000011920929"/>
<circle cx="316.2666666666623" cy="-5.44" fill="#07fc03" r="0.800000011920929"/>
<circle cx="316.79999999999563" cy="-5.403243243243243" fill="#07fc03" r="0.800000011920929"/>
<circle cx="317.33333333332894" cy="-5.403243243243243" fill="#07fc03" r="0.800000011920929"/>
<circle cx="317.86666666666224" cy="-5.366486486486487" fill="#07fc03" r="0.800000011920929"/>
<circle cx="318.3999999999956" cy="-5.366486486486487" fill="#07fc03" r="0.800000011920929"/>
<circle cx="318.9333333333289" cy="-5.3297297297297295" fill="#07fc03" r="0.800000011920929"/>
<circle cx="319.4666666666622" cy="-5.3297297297297295" fill="#07fc03" r="0.800000011920929"/>
<circle cx="319.99999999999557" cy="-5.292972972972973" fill="#07fc03" r="0.800000011920929"/>
<circle cx="320.53333333332887" cy="-5.292972972972973" fill="#07fc03" r="0.800000011920929"/>
<circle cx="321.06666666666223" cy="-5.256216216216216" fill="#07fc03" r="0.800000011920929"/>
<circle cx="321.59999999999553" cy="-5.256216216216216" fill="#07fc03" r="0.800000011920929"/>
<circle cx="322.13333333332884" cy="-5.219459459459459" fill="#07fc03" r="0.800000011920929"/>
<circle cx="322.6666666666622" cy="-5.219459459459459" fill="#07fc03" r="0.800000011920929"/>
<circle cx="323.1999999999955" cy="-5.182702702702703" fill="#07fc03" r="0.800000011920929"/>
<circle cx="323.7333333333288" cy="-5.182702702702703" fill="#07fc03" r="0.800000011920929"/>
<circle cx="324.2666666666621" cy="-5.145945945945946" fill="#07fc03" r="0.800000011920929"/>
<circle cx="324.7999999999954" cy="-5.109189189189189" fill="#07fc03" r="0.800000011920929"/>
<circle cx="325.33333333332877" cy="-5.109189189189189" fill="#07fc03" r="0.800000011920929"/>
<circle cx="325.86666666666207" cy="-5.072432432432432" fill="#07fc03" r="0.800000011920929"/>
<circle cx="326.3999999999954" cy="-5.072432432432432" fill="#07fc03" r="0.800000011920929"/>
<circle cx="326.93333333332873" cy="-5.035675675675676" fill="#07fc03" r="0.800000011920929"/>
<circle cx="327.46666666666204" cy="-5.035675675675676" fill="#07fc03" r="0.800000011920929"/>
<circle cx="327.99999999999534" cy="-4.9989189189189185" fill="#07fc03" r="0.800000011920929"/>
<circle cx="328.5333333333287" cy="-4.9989189189189185" fill="#07fc03" r="0.800000011920929"/>
<circle cx="329.066666666662" cy="-4.962162162162162" fill="#07fc03" r="0.800000011920929"/>
<circle cx="329.59999999999536" cy="-4.962162162162162" fill="#07fc03" r="0.800000011920929"/>
<circle cx="330.13333333332866" cy="-4.962162162162162" fill="#07fc03" r="0.800000011920929"/>
<circle cx="330.66666666666197" cy="-4.925405405405406" fill="#07fc03" r="0.800000011920929"/>
<circle cx="331.1999999999953" cy="-4.925405405405406" fill="#07fc03" r="0.800000011920929"/>
<circle cx="331.73333333332863" cy="-4.8886486486486485" fill="#07fc03" r="0.800000011920929"/>
<circle cx="332.266666666662" cy="-4.8886486486486485" fill="#07fc03" r="0.800000011920929"/>
<circle cx="332.7999999999953" cy="-4.851891891891892" fill="#07fc03" r="0.800000011920929"/>
<circle cx="333.3333333333286" cy="-4.851891891891892" fill="#07fc03" r="0.800000011920929"/>
<circle cx="333.86666666666196" cy="-4.815135135135135" fill="#07fc03" r="0.800000011920929"/>
<circle cx="334.39999999999526" cy="-4.815135135135135" fill="#07fc03" r="0.800000011920929"/>
<circle cx="334.93333333332856" cy="-4.778378378378378" fill="#07fc03" r="0.800000011920929"/>
<circle cx="335.4666666666619" cy="-4.778378378378378" fill="#07fc03" r="0.800000011920929"/>
<circle cx="335.9999999999952" cy="-4.741621621621622" fill="#07fc03" r="0.800000011920929"/>
<circle cx="336.5333333333285" cy="-4.741621621621622" fill="#07fc03" r="0.800000011920929"/>
<circle cx="337.06666666666183" cy="-4.704864864864865" fill="#07fc03" r="0.800000011920929"/>
<circle cx="337.59999999999513" cy="-4.704864864864865" fill="#07fc03" r="0.800000011920929"/>
<circle cx="338.1333333333285" cy="-4.668108108108108" fill="#07fc03" r="0.800000011920929"/>
<circle cx="338.6666666666618" cy="-4.668108108108108" fill="#07fc03" r="0.800000011920929"/>
<circle cx="339.1999999999951" cy="-4.668108108108108" fill="#07fc03" r="0.800000011920929"/>
<circle cx="339.73333333332846" cy="-4.631351351351351" fill="#07fc03" r="0.800000011920929"/>
<circle cx="340.26666666666176" cy="-4.631351351351351" fill="#07fc03" r="0.800000011920929"/>
<circle cx="340.7999999999951" cy="-4.594594594594595" fill="#07fc03" r="0.800000011920929"/>
<circle cx="341.3333333333284" cy="-4.594594594594595" fill="#07fc03" r="0.800000011920929"/>
<circle cx="341.86666666666173" cy="-4.5578378378378375" fill="#07fc03" r="0.800000011920929"/>
<circle cx="342.3999999999951" cy="-4.5578378378378375" fill="#07fc03" r="0.800000011920929"/>
<circle cx="342.9333333333284" cy="-4.5578378378378375" fill="#07fc03" r="0.800000011920929"/>
<circle cx="343.4666666666617" cy="-4.521081081081081" fill="#07fc03" r="0.800000011920929"/>
<circle cx="343.99999999999505" cy="-4.521081081081081" fill="#07fc03" r="0.800000011920929"/>
<circle cx="344.53333333332836" cy="-4.484324324324325" fill="#07fc03" r="0.800000011920929"/>
<circle cx="345.06666666666166" cy="-4.484324324324325" fill="#07fc03" r="0.800000011920929"/>
<circle cx="345.599999999995" cy="-4.447567567567567" fill="#07fc03" r="0.800000011920929"/>
<circle cx="346.1333333333283" cy="-4.447567567567567" fill="#07fc03" r="0.800000011920929"/>
<circle cx="346.6666666666617" cy="-4.447567567567567" fill="#07fc03" r="0.800000011920929"/>
<circle cx="347.199999999995" cy="-4.410810810810811" fill="#07fc03" r="0.800000011920929"/>
<circle cx="347.7333333333283" cy="-4.410810810810811" fill="#07fc03" r="0.800000011920929"/>
<circle cx="348.26666666666165" cy="-4.374054054054054" fill="#07fc03" r="0.800000011920929"/>
<circle cx="348.79999999999495" cy="-4.374054054054054" fill="#07fc03" r="0.800000011920929"/>
<circle cx="349.33333333332826" cy="-4.337297297297297" fill="#07fc03" r="0.800000011920929"/>
<circle cx="349.86666666666156" cy="-4.337297297297297" fill="#07fc03" r="0.800000011920929"/>
<circle cx="350.39999999999486" cy="-4.337297297297297" fill="#07fc03" r="0.800000011920929"/>
<circle cx="350.9333333333282" cy="-4.30054054054054" fill="#07fc03" r="0.800000011920929"/>
<circle cx="351.4666666666615" cy="-4.30054054054054" fill="#07fc03" r="0.800000011920929"/>
<circle cx="351.9999999999948" cy="-4.263783783783784" fill="#07fc03" r="0.800000011920929"/>
<circle cx="352.5333333333282" cy="-4.263783783783784" fill="#07fc03" r="0.800000011920929"/>
<circle cx="353.0666666666615" cy="-4.263783783783784" fill="#07fc03" r="0.800000011920929"/>
<circle cx="353.5999999999948" cy="-4.227027027027027" fill="#07fc03" r="0.800000011920929"/>
<circle cx="354.13333333332815" cy="-4.227027027027027" fill="#07fc03" r="0.800000011920929"/>
<circle cx="354.66666666666146" cy="-4.19027027027027" fill="#07fc03" r="0.800000011920929"/>
<circle cx="355.1999999999948" cy="-4.19027027027027" fill="#07fc03" r="0.800000011920929"/>
<circle cx="355.7333333333281" cy="-4.19027027027027" fill="#07fc03" r="0.800000011920929"/>
<circle cx="356.2666666666614" cy="-4.153513513513514" fill="#07fc03" r="0.800000011920929"/>
<circle cx="356.7999999999948" cy="-4.153513513513514" fill="#07fc03" r="0.800000011920929"/>
<circle cx="357.3333333333281" cy="-4.153513513513514" fill="#07fc03" r="0.800000011920929"/>
<circle cx="357.86666666666144" cy="-4.1167567567567565" fill="#07fc03" r="0.800000011920929"/>
<circle cx="358.39999999999475" cy="-4.1167567567567565" fill="#07fc03" r="0.800000011920929"/>
<circle cx="358.93333333332805" cy="-4.08" fill="#07fc03" r="0.800000011920929"/>
<circle cx="359.4666666666614" cy="-4.08" fill="#07fc03" r="0.800000011920929"/>
<circle cx="359.9999999999947" cy="-4.08" fill="#07fc03" r="0.800000011920929"/>
<circle cx="360.533333333328" cy="-4.043243243243243" fill="#07fc03" r="0.800000011920929"/>
<circle cx="361.0666666666614" cy="-4.043243243243243" fill="#07fc03" r="0.800000011920929"/>
<circle cx="361.5999999999947" cy="-4.043243243243243" fill="#07fc03" r="0.800000011920929"/>
<circle cx="362.133333333328" cy="-4.006486486486486" fill="#07fc03" r="0.800000011920929"/>
<circle cx="362.6666666666613" cy="-4.006486486486486" fill="#07fc03" r="0.800000011920929"/>
<circle cx="363.1999999999946" cy="-3.9697297297297296" fill="#07fc03" r="0.800000011920929"/>
<circle cx="363.73333333332795" cy="-3.9697297297297296" fill="#07fc03" r="0.800000011920929"/>
<circle cx="364.26666666666125" cy="-3.9697297297297296" fill="#07fc03" r="0.800000011920929"/>
<circle cx="364.79999999999455" cy="-3.9329729729729728" fill="#07fc03" r="0.800000011920929"/>
<circle cx="365.3333333333279" cy="-3.9329729729729728" fill="#07fc03" r="0.800000011920929"/>
<circle cx="365.8666666666612" cy="-3.9329729729729728" fill="#07fc03" r="0.800000011920929"/>
<circle cx="366.3999999999946" cy="-3.8962162162162164" fill="#07fc03" r="0.800000011920929"/>
<circle cx="366.9333333333279" cy="-3.8962162162162164" fill="#07fc03" r="0.800000011920929"/>
<circle cx="367.4666666666612" cy="-3.8962162162162164" fill="#07fc03" r="0.800000011920929"/>
<circle cx="367.99999999999454" cy="-3.8594594594594596" fill="#07fc03" r="0.800000011920929"/>
<circle cx="368.53333333332785" cy="-3.8594594594594596" fill="#07fc03" r="0.800000011920929"/>
<circle cx="369.06666666666115" cy="-3.8594594594594596" fill="#07fc03" r="0.800000011920929"/>
<circle cx="369.5999999999945" cy="-3.8227027027027027" fill="#07fc03" r="0.800000011920929"/>
<circle cx="370.1333333333278" cy="-3.8227027027027027" fill="#07fc03" r="0.800000011920929"/>
<circle cx="370.6666666666611" cy="-3.8227027027027027" fill="#07fc03" r="0.800000011920929"/>
<circle cx="371.1999999999945" cy="-3.785945945945946" fill="#07fc03" r="0.800000011920929"/>
<circle cx="371.7333333333278" cy="-3.785945945945946" fill="#07fc03" r="0.800000011920929"/>
<circle cx="372.26666666666114" cy="-3.785945945945946" fill="#07fc03" r="0.800000011920929"/>
<circle cx="372.79999999999444" cy="-3.749189189189189" fill="#07fc03" r="0.800000011920929"/>
<circle cx="373.33333333332774" cy="-3.749189189189189" fill="#07fc03" r="0.800000011920929"/>
<circle cx="373.8666666666611" cy="-3.749189189189189" fill="#07fc03" r="0.800000011920929"/>
<circle cx="374.3999999999944" cy="-3.7124324324324323" fill="#07fc03" r="0.800000011920929"/>
<circle cx="374.9333333333277" cy="-3.7124324324324323" fill="#07fc03" r="0.800000011920929"/>
<circle cx="375.466666666661" cy="-3.7124324324324323" fill="#07fc03" r="0.800000011920929"/>
<circle cx="375.9999999999943" cy="-3.675675675675676" fill="#07fc03" r="0.800000011920929"/>
<circle cx="376.5333333333277" cy="-3.675675675675676" fill="#07fc03" r="0.800000011920929"/>
<circle cx="377.066666666661" cy="-3.675675675675676" fill="#07fc03" r="0.800000011920929"/>
<circle cx="377.5999999999943" cy="-3.638918918918919" fill="#07fc03" r="0.800000011920929"/>
<circle cx="378.13333333332764" cy="-3.638918918918919" fill="#07fc03" r="0.800000011920929"/>
<circle cx="378.66666666666094" cy="-3.638918918918919" fill="#07fc03" r="0.800000011920929"/>
<circle cx="379.19999999999425" cy="-3.6021621621621622" fill="#07fc03" r="0.800000011920929"/>
<circle cx="379.7333333333276" cy="-3.6021621621621622" fill="#07fc03" r="0.800000011920929"/>
<circle cx="380.2666666666609" cy="-3.6021621621621622" fill="#07fc03" r="0.800000011920929"/>
<circle cx="380.79999999999427" cy="-3.5654054054054054" fill="#07fc03" r="0.800000011920929"/>
<circle cx="381.3333333333276" cy="-3.5654054054054054" fill="#07fc03" r="0.800000011920929"/>
<circle cx="381.8666666666609" cy="-3.5654054054054054" fill="#07fc03" r="0.800000011920929"/>
<circle cx="382.39999999999424" cy="-3.5654054054054054" fill="#07fc03" r="0.800000011920929"/>
<circle cx="382.93333333332754" cy="-3.5286486486486486" fill="#07fc03" r="0.800000011920929"/>
<circle cx="383.4666666666609" cy="-3.5286486486486486" fill="#07fc03" r="0.800000011920929"/>
<circle cx="383.9999999999942" cy="-3.5286486486486486" fill="#07fc03" r="0.800000011920929"/>
<circle cx="384.5333333333275" cy="-3.4918918918918918" fill="#07fc03" r="0.800000011920929"/>
<circle cx="385.06666666666086" cy="-3.4918918918918918" fill="#07fc03" r="0.800000011920929"/>
<circle cx="385.59999999999417" cy="-3.4918918918918918" fill="#07fc03" r="0.800000011920929"/>
<circle cx="386.13333333332747" cy="-3.455135135135135" fill="#07fc03" r="0.800000011920929"/>
<circle cx="386.66666666666083" cy="-3.455135135135135" fill="#07fc03" r="0.800000011920929"/>
<circle cx="387.19999999999413" cy="-3.455135135135135" fill="#07fc03" r="0.800000011920929"/>
<circle cx="387.73333333332744" cy="-3.455135135135135" fill="#07fc03" r="0.800000011920929"/>
<circle cx="388.26666666666074" cy="-3.4183783783783785" fill="#07fc03" r="0.800000011920929"/>
<circle cx="388.79999999999404" cy="-3.4183783783783785" fill="#07fc03" r="0.800000011920929"/>
<circle cx="389.3333333333274" cy="-3.4183783783783785" fill="#07fc03" r="0.800000011920929"/>
<circle cx="389.8666666666607" cy="-3.3816216216216217" fill="#07fc03" r="0.800000011920929"/>
<circle cx="390.399999999994" cy="-3.3816216216216217" fill="#07fc03" r="0.800000011920929"/>
<circle cx="390.93333333332737" cy="-3.3816216216216217" fill="#07fc03" r="0.800000011920929"/>
<circle cx="391.4666666666607" cy="-3.3816216216216217" fill="#07fc03" r="0.800000011920929"/>
<circle cx="391.99999999999403" cy="-3.344864864864865" fill="#07fc03" r="0.800000011920929"/>
<circle cx="392.53333333332733" cy="-3.344864864864865" fill="#07fc03" r="0.800000011920929"/>
<circle cx="393.06666666666064" cy="-3.344864864864865" fill="#07fc03" r="0.800000011920929"/>
<circle cx="393.599999999994" cy="-3.308108108108108" fill="#07fc03" r="0.800000011920929"/>
<circle cx="394.1333333333273" cy="-3.308108108108108" fill="#07fc03" r="0.800000011920929"/>
<circle cx="394.6666666666606" cy="-3.308108108108108" fill="#07fc03" r="0.800000011920929"/>
<circle cx="395.19999999999396" cy="-3.308108108108108" fill="#07fc03" r="0.800000011920929"/>
<circle cx="395.73333333332727" cy="-3.2713513513513512" fill="#07fc03" r="0.800000011920929"/>
<circle cx="396.26666666666057" cy="-3.2713513513513512" fill="#07fc03" r="0.800000011920929"/>
<circle cx="396.79999999999393" cy="-3.2713513513513512" fill="#07fc03" r="0.800000011920929"/>
<circle cx="397.33333333332723" cy="-3.2713513513513512" fill="#07fc03" r="0.800000011920929"/>
<circle cx="397.8666666666606" cy="-3.2345945945945944" fill="#07fc03" r="0.800000011920929"/>
<circle cx="398.3999999999939" cy="-3.2345945945945944" fill="#07fc03" r="0.800000011920929"/>
<circle cx="398.9333333333272" cy="-3.2345945945945944" fill="#07fc03" r="0.800000011920929"/>
<circle cx="399.46666666666056" cy="-3.2345945945945944" fill="#07fc03" r="0.800000011920929"/>
<circle cx="399.99999999999386" cy="-3.197837837837838" fill="#07fc03" r="0.800000011920929"/>
<circle cx="400.53333333332716" cy="-3.197837837837838" fill="#07fc03" r="0.800000011920929"/>
<circle cx="401.06666666666047" cy="-3.197837837837838" fill="#07fc03" r="0.800000011920929"/>
<circle cx="401.59999999999377" cy="-3.197837837837838" fill="#07fc03" r="0.800000011920929"/>
<circle cx="402.13333333332713" cy="-3.161081081081081" fill="#07fc03" r="0.800000011920929"/>
<circle cx="402.66666666666043" cy="-3.161081081081081" fill="#07fc03" r="0.800000011920929"/>
<circle cx="403.19999999999374" cy="-3.161081081081081" fill="#07fc03" r="0.800000011920929"/>
<circle cx="403.7333333333271" cy="-3.161081081081081" fill="#07fc03" r="0.800000011920929"/>
<circle cx="404.2666666666604" cy="-3.1243243243243244" fill="#07fc03" r="0.800000011920929"/>
<circle cx="404.7999999999937" cy="-3.1243243243243244" fill="#07fc03" r="0.800000011920929"/>
<circle cx="405.33333333332706" cy="-3.1243243243243244" fill="#07fc03" r="0.800000011920929"/>
<circle cx="405.86666666666036" cy="-3.1243243243243244" fill="#07fc03" r="0.800000011920929"/>
<circle cx="406.3999999999937" cy="-3.0875675675675676" fill="#07fc03" r="0.800000011920929"/>
<circle cx="406.933333333327" cy="-3.0875675675675676" fill="#07fc03" r="0.800000011920929"/>
<circle cx="407.46666666666033" cy="-3.0875675675675676" fill="#07fc03" r="0.800000011920929"/>
<circle cx="407.9999999999937" cy="-3.0875675675675676" fill="#07fc03" r="0.800000011920929"/>
<circle cx="408.533333333327" cy="-3.0508108108108107" fill="#07fc03" r="0.800000011920929"/>
<circle cx="409.06666666666035" cy="-3.0508108108108107" fill="#07fc03" r="0.800000011920929"/>
<circle cx="409.59999999999366" cy="-3.0508108108108107" fill="#07fc03" r="0.800000011920929"/>
<circle cx="410.13333333332696" cy="-3.0508108108108107" fill="#07fc03" r="0.800000011920929"/>
<circle cx="410.6666666666603" cy="-3.014054054054054" fill="#07fc03" r="0.800000011920929"/>
<circle cx="411.1999999999936" cy="-3.014054054054054" fill="#07fc03" r="0.800000011920929"/>
<circle cx="411.7333333333269" cy="-3.014054054054054" fill="#07fc03" r="0.800000011920929"/>
<circle cx="412.2666666666603" cy="-3.014054054054054" fill="#07fc03" r="0.800000011920929"/>
<circle cx="412.7999999999936" cy="-2.977297297297297" fill="#07fc03" r="0.800000011920929"/>
<circle cx="413.3333333333269" cy="-2.977297297297297" fill="#07fc03" r="0.800000011920929"/>
<circle cx="413.8666666666602" cy="-2.977297297297297" fill="#07fc03" r="0.800000011920929"/>
<circle cx="414.3999999999935" cy="-2.977297297297297" fill="#07fc03" r="0.800000011920929"/>
<circle cx="414.93333333332686" cy="-2.977297297297297" fill="#07fc03" r="0.800000011920929"/>
<circle cx="415.46666666666016" cy="-2.9405405405405407" fill="#07fc03" r="0.800000011920929"/>
<circle cx="415.99999999999346" cy="-2.9405405405405407" fill="#07fc03" r="0.800000011920929"/>
<circle cx="416.5333333333268" cy="-2.9405405405405407" fill="#07fc03" r="0.800000011920929"/>
<circle cx="417.0666666666601" cy="-2.9405405405405407" fill="#07fc03" r="0.800000011920929"/>
<circle cx="417.5999999999935" cy="-2.903783783783784" fill="#07fc03" r="0.800000011920929"/>
<circle cx="418.1333333333268" cy="-2.903783783783784" fill="#07fc03" r="0.800000011920929"/>
<circle cx="418.6666666666601" cy="-2.903783783783784" fill="#07fc03" r="0.800000011920929"/>
<circle cx="419.19999999999345" cy="-2.903783783783784" fill="#07fc03" r="0.800000011920929"/>
<circle cx="419.73333333332675" cy="-2.903783783783784" fill="#07fc03" r="0.800000011920929"/>
<circle cx="420.26666666666006" cy="-2.867027027027027" fill="#07fc03" r="0.800000011920929"/>
<circle cx="420.7999999999934" cy="-2.867027027027027" fill="#07fc03" r="0.800000011920929"/>
<circle cx="421.3333333333267" cy="-2.867027027027027" fill="#07fc03" r="0.800000011920929"/>
<circle cx="421.86666666666" cy="-2.867027027027027" fill="#07fc03" r="0.800000011920929"/>
<circle cx="422.3999999999934" cy="-2.8302702702702702" fill="#07fc03" r="0.800000011920929"/>
<circle cx="422.9333333333267" cy="-2.8302702702702702" fill="#07fc03" r="0.800000011920929"/>
<circle cx="423.46666666666005" cy="-2.8302702702702702" fill="#07fc03" r="0.800000011920929"/>
<circle cx="423.99999999999335" cy="-2.8302702702702702" fill="#07fc03" r="0.800000011920929"/>
<circle cx="424.53333333332665" cy="-2.8302702702702702" fill="#07fc03" r="0.800000011920929"/>
<circle cx="425.06666666666" cy="-2.7935135135135134" fill="#07fc03" r="0.800000011920929"/>
<circle cx="425.5999999999933" cy="-2.7935135135135134" fill="#07fc03" r="0.800000011920929"/>
<circle cx="426.1333333333266" cy="-2.7935135135135134" fill="#07fc03" r="0.800000011920929"/>
<circle cx="426.6666666666599" cy="-2.7935135135135134" fill="#07fc03" r="0.800000011920929"/>
<circle cx="427.1999999999932" cy="-2.7935135135135134" fill="#07fc03" r="0.800000011920929"/>
<circle cx="427.7333333333266" cy="-2.7567567567567566" fill="#07fc03" r="0.800000011920929"/>
<circle cx="428.2666666666599" cy="-2.7567567567567566" fill="#07fc03" r="0.800000011920929"/>
<circle cx="428.7999999999932" cy="-2.7567567567567566" fill="#07fc03" r="0.800000011920929"/>
<circle cx="429.33333333332655" cy="-2.7567567567567566" fill="#07fc03" r="0.800000011920929"/>
<circle cx="429.86666666665985" cy="-2.7567567567567566" fill="#07fc03" r="0.800000011920929"/>
<circle cx="430.39999999999316" cy="-2.72" fill="#07fc03" r="0.800000011920929"/>
<circle cx="430.9333333333265" cy="-2.72" fill="#07fc03" r="0.800000011920929"/>
<circle cx="431.4666666666598" cy="-2.72" fill="#07fc03" r="0.800000011920929"/>
<circle cx="431.9999999999932" cy="-2.72" fill="#07fc03" r="0.800000011920929"/>
<circle cx="432.5333333333265" cy="-2.72" fill="#07fc03" r="0.800000011920929"/>
<circle cx="433.0666666666598" cy="-2.6832432432432434" fill="#07fc03" r="0.800000011920929"/>
<circle cx="433.59999999999314" cy="-2.6832432432432434" fill="#07fc03" r="0.800000011920929"/>
<circle cx="434.13333333332645" cy="-2.6832432432432434" fill="#07fc03" r="0.800000011920929"/>
<circle cx="434.6666666666598" cy="-2.6832432432432434" fill="#07fc03" r="0.800000011920929"/>
<circle cx="435.1999999999931" cy="-2.6832432432432434" fill="#07fc03" r="0.800000011920929"/>
<circle cx="435.7333333333264" cy="-2.6832432432432434" fill="#07fc03" r="0.800000011920929"/>
<circle cx="436.2666666666598" cy="-2.6464864864864865" fill="#07fc03" r="0.800000011920929"/>
<circle cx="436.7999999999931" cy="-2.6464864864864865" fill="#07fc03" r="0.800000011920929"/>
<circle cx="437.3333333333264" cy="-2.6464864864864865" fill="#07fc03" r="0.800000011920929"/>
<circle cx="437.86666666665974" cy="-2.6464864864864865" fill="#07fc03" r="0.800000011920929"/>
<circle cx="438.39999999999304" cy="-2.6464864864864865" fill="#07fc03" r="0.800000011920929"/>
<circle cx="438.93333333332635" cy="-2.6097297297297297" fill="#07fc03" r="0.800000011920929"/>
<circle cx="439.46666666665965" cy="-2.6097297297297297" fill="#07fc03" r="0.800000011920929"/>
<circle cx="439.99999999999295" cy="-2.6097297297297297" fill="#07fc03" r="0.800000011920929"/>
<circle cx="440.5333333333263" cy="-2.6097297297297297" fill="#07fc03" r="0.800000011920929"/>
<circle cx="441.0666666666596" cy="-2.6097297297297297" fill="#07fc03" r="0.800000011920929"/>
<circle cx="441.5999999999929" cy="-2.6097297297297297" fill="#07fc03" r="0.800000011920929"/>
<circle cx="442.1333333333263" cy="-2.572972972972973" fill="#07fc03" r="0.800000011920929"/>
<circle cx="442.6666666666596" cy="-2.572972972972973" fill="#07fc03" r="0.800000011920929"/>
<circle cx="443.19999999999294" cy="-2.572972972972973" fill="#07fc03" r="0.800000011920929"/>
<circle cx="443.73333333332624" cy="-2.572972972972973" fill="#07fc03" r="0.800000011920929"/>
<circle cx="444.26666666665955" cy="-2.572972972972973" fill="#07fc03" r="0.800000011920929"/>
<circle cx="444.7999999999929" cy="-2.572972972972973" fill="#07fc03" r="0.800000011920929"/>
<circle cx="445.3333333333262" cy="-2.536216216216216" fill="#07fc03" r="0.800000011920929"/>
<circle cx="445.8666666666595" cy="-2.536216216216216" fill="#07fc03" r="0.800000011920929"/>
<circle cx="446.3999999999929" cy="-2.536216216216216" fill="#07fc03" r="0.800000011920929"/>
<circle cx="446.9333333333262" cy="-2.536216216216216" fill="#07fc03" r="0.800000011920929"/>
<circle cx="447.4666666666595" cy="-2.536216216216216" fill="#07fc03" r="0.800000011920929"/>
<circle cx="447.99999999999284" cy="-2.536216216216216" fill="#07fc03" r="0.800000011920929"/>
<circle cx="448.53333333332614" cy="-2.4994594594594592" fill="#07fc03" r="0.800000011920929"/>
<circle cx="449.0666666666595" cy="-2.4994594594594592" fill="#07fc03" r="0.800000011920929"/>
<circle cx="449.5999999999928" cy="-2.4994594594594592" fill="#07fc03" r="0.800000011920929"/>
<circle cx="450.1333333333261" cy="-2.4994594594594592" fill="#07fc03" r="0.800000011920929"/>
<circle cx="450.66666666665947" cy="-2.4994594594594592" fill="#07fc03" r="0.800000011920929"/>
<circle cx="451.19999999999277" cy="-2.4994594594594592" fill="#07fc03" r="0.800000011920929"/>
<circle cx="451.7333333333261" cy="-2.462702702702703" fill="#07fc03" r="0.800000011920929"/>
<circle cx="452.2666666666594" cy="-2.462702702702703" fill="#07fc03" r="0.800000011920929"/>
<circle cx="452.7999999999927" cy="-2.462702702702703" fill="#07fc03" r="0.800000011920929"/>
<circle cx="453.33333333332604" cy="-2.462702702702703" fill="#07fc03" r="0.800000011920929"/>
<circle cx="453.86666666665934" cy="-2.462702702702703" fill="#07fc03" r="0.800000011920929"/>
<circle cx="454.39999999999264" cy="-2.462702702702703" fill="#07fc03" r="0.800000011920929"/>
<circle cx="454.933333333326" cy="-2.425945945945946" fill="#07fc03" r="0.800000011920929"/>
<circle cx="455.46666666665936" cy="-2.425945945945946" fill="#07fc03" r="0.800000011920929"/>
<circle cx="455.9999999999926" cy="-2.425945945945946" fill="#07fc03" r="0.800000011920929"/>
<circle cx="456.53333333332597" cy="-2.425945945945946" fill="#07fc03" r="0.800000011920929"/>
<circle cx="457.06666666665933" cy="-2.425945945945946" fill="#07fc03" r="0.800000011920929"/>
<circle cx="457.5999999999926" cy="-2.425945945945946" fill="#07fc03" r="0.800000011920929"/>
<circle cx="458.13333333332594" cy="-2.425945945945946" fill="#07fc03" r="0.800000011920929"/>
<circle cx="458.6666666666593" cy="-2.389189189189189" fill="#07fc03" r="0.800000011920929"/>
<circle cx="459.19999999999254" cy="-2.389189189189189" fill="#07fc03" r="0.800000011920929"/>
<circle cx="459.7333333333259" cy="-2.389189189189189" fill="#07fc03" r="0.800000011920929"/>
<circle cx="460.26666666665926" cy="-2.389189189189189" fill="#07fc03" r="0.800000011920929"/>
<circle cx="460.7999999999925" cy="-2.389189189189189" fill="#07fc03" r="0.800000011920929"/>
<circle cx="461.33333333332587" cy="-2.389189189189189" fill="#07fc03" r="0.800000011920929"/>
<circle cx="461.8666666666592" cy="-2.389189189189189" fill="#07fc03" r="0.800000011920929"/>
<circle cx="462.3999999999926" cy="-2.3524324324324324" fill="#07fc03" r="0.800000011920929"/>
<circle cx="462.93333333332583" cy="-2.3524324324324324" fill="#07fc03" r="0.800000011920929"/>
<circle cx="463.4666666666592" cy="-2.3524324324324324" fill="#07fc03" r="0.800000011920929"/>
<circle cx="463.9999999999925" cy="-2.3524324324324324" fill="#07fc03" r="0.800000011920929"/>
<circle cx="464.5333333333258" cy="-2.3524324324324324" fill="#07fc03" r="0.800000011920929"/>
<circle cx="465.0666666666591" cy="-2.3524324324324324" fill="#07fc03" r="0.800000011920929"/>
<circle cx="465.59999999999246" cy="-2.3524324324324324" fill="#07fc03" r="0.800000011920929"/>
<circle cx="466.1333333333257" cy="-2.3156756756756756" fill="#07fc03" r="0.800000011920929"/>
<circle cx="466.66666666665907" cy="-2.3156756756756756" fill="#07fc03" r="0.800000011920929"/>
<circle cx="467.19999999999243" cy="-2.3156756756756756" fill="#07fc03" r="0.800000011920929"/>
<circle cx="467.7333333333257" cy="-2.3156756756756756" fill="#07fc03" r="0.800000011920929"/>
<circle cx="468.26666666665903" cy="-2.3156756756756756" fill="#07fc03" r="0.800000011920929"/>
<circle cx="468.7999999999924" cy="-2.3156756756756756" fill="#07fc03" r="0.800000011920929"/>
<circle cx="469.33333333332564" cy="-2.3156756756756756" fill="#07fc03" r="0.800000011920929"/>
<circle cx="469.866666666659" cy="-2.2789189189189187" fill="#07fc03" r="0.800000011920929"/>
<circle cx="470.39999999999236" cy="-2.2789189189189187" fill="#07fc03" r="0.800000011920929"/>
<circle cx="470.9333333333256" cy="-2.2789189189189187" fill="#07fc03" r="0.800000011920929"/>
<circle cx="471.46666666665897" cy="-2.2789189189189187" fill="#07fc03" r="0.800000011920929"/>
<circle cx="471.9999999999923" cy="-2.2789189189189187" fill="#07fc03" r="0.800000011920929"/>
<circle cx="472.5333333333257" cy="-2.2789189189189187" fill="#07fc03" r="0.800000011920929"/>
<circle cx="473.06666666665893" cy="-2.2789189189189187" fill="#07fc03" r="0.800000011920929"/>
<circle cx="473.5999999999923" cy="-2.2789189189189187" fill="#07fc03" r="0.800000011920929"/>
<circle cx="474.13333333332565" cy="-2.2421621621621624" fill="#07fc03" r="0.800000011920929"/>
<circle cx="474.6666666666589" cy="-2.2421621621621624" fill="#07fc03" r="0.800000011920929"/>
<circle cx="475.19999999999226" cy="-2.2421621621621624" fill="#07fc03" r="0.800000011920929"/>
<circle cx="475.7333333333256" cy="-2.2421621621621624" fill="#07fc03" r="0.800000011920929"/>
<circle cx="476.26666666665886" cy="-2.2421621621621624" fill="#07fc03" r="0.800000011920929"/>
<circle cx="476.7999999999922" cy="-2.2421621621621624" fill="#07fc03" r="0.800000011920929"/>
<circle cx="477.3333333333255" cy="-2.2421621621621624" fill="#07fc03" r="0.800000011920929"/>
<circle cx="477.86666666665883" cy="-2.2421621621621624" fill="#07fc03" r="0.800000011920929"/>
<circle cx="478.39999999999213" cy="-2.2054054054054055" fill="#07fc03" r="0.800000011920929"/>
<circle cx="478.9333333333255" cy="-2.2054054054054055" fill="#07fc03" r="0.800000011920929"/>
<circle cx="479.46666666665885" cy="-2.2054054054054055" fill="#07fc03" r="0.800000011920929"/>
<circle cx="479.9999999999921" cy="-2.2054054054054055" fill="#07fc03" r="0.800000011920929"/>
<circle cx="480.53333333332546" cy="-2.2054054054054055" fill="#07fc03" r="0.800000011920929"/>
<circle cx="481.0666666666588" cy="-2.2054054054054055" fill="#07fc03" r="0.800000011920929"/>
<circle cx="481.59999999999206" cy="-2.2054054054054055" fill="#07fc03" r="0.800000011920929"/>
<circle cx="482.1333333333254" cy="-2.2054054054054055" fill="#07fc03" r="0.800000011920929"/>
<circle cx="482.6666666666588" cy="-2.2054054054054055" fill="#07fc03" r="0.800000011920929"/>
<circle cx="483.19999999999203" cy="-2.1686486486486487" fill="#07fc03" r="0.800000011920929"/>
<circle cx="483.7333333333254" cy="-2.1686486486486487" fill="#07fc03" r="0.800000011920929"/>
<circle cx="484.26666666665875" cy="-2.1686486486486487" fill="#07fc03" r="0.800000011920929"/>
<circle cx="484.799999999992" cy="-2.1686486486486487" fill="#07fc03" r="0.800000011920929"/>
<circle cx="485.33333333332536" cy="-2.1686486486486487" fill="#07fc03" r="0.800000011920929"/>
<circle cx="485.8666666666587" cy="-2.1686486486486487" fill="#07fc03" r="0.800000011920929"/>
<circle cx="486.39999999999196" cy="-2.1686486486486487" fill="#07fc03" r="0.800000011920929"/>
<circle cx="486.9333333333253" cy="-2.1686486486486487" fill="#07fc03" r="0.800000011920929"/>
<circle cx="487.4666666666587" cy="-2.1686486486486487" fill="#07fc03" r="0.800000011920929"/>
<circle cx="487.9999999999919" cy="-2.131891891891892" fill="#07fc03" r="0.800000011920929"/>
<circle cx="488.5333333333253" cy="-2.131891891891892" fill="#07fc03" r="0.800000011920929"/>
<circle cx="489.06666666665865" cy="-2.131891891891892" fill="#07fc03" r="0.800000011920929"/>
<circle cx="489.59999999999195" cy="-2.131891891891892" fill="#07fc03" r="0.800000011920929"/>
<circle cx="490.13333333332525" cy="-2.131891891891892" fill="#07fc03" r="0.800000011920929"/>
<circle cx="490.66666666665856" cy="-2.131891891891892" fill="#07fc03" r="0.800000011920929"/>
<circle cx="491.1999999999919" cy="-2.131891891891892" fill="#07fc03" r="0.800000011920929"/>
<circle cx="491.73333333332516" cy="-2.131891891891892" fill="#07fc03" r="0.800000011920929"/>
<circle cx="492.2666666666585" cy="-2.131891891891892" fill="#07fc03" r="0.800000011920929"/>
<circle cx="492.7999999999919" cy="-2.131891891891892" fill="#07fc03" r="0.800000011920929"/>
<circle cx="493.33333333332513" cy="-2.095135135135135" fill="#07fc03" r="0.800000011920929"/>
<circle cx="493.8666666666585" cy="-2.095135135135135" fill="#07fc03" r="0.800000011920929"/>
<circle cx="494.39999999999185" cy="-2.095135135135135" fill="#07fc03" r="0.800000011920929"/>
<circle cx="494.9333333333251" cy="-2.095135135135135" fill="#07fc03" r="0.800000011920929"/>
<circle cx="495.46666666665845" cy="-2.095135135135135" fill="#07fc03" r="0.800000011920929"/>
<circle cx="495.9999999999918" cy="-2.095135135135135" fill="#07fc03" r="0.800000011920929"/>
<circle cx="496.5333333333252" cy="-2.095135135135135" fill="#07fc03" r="0.800000011920929"/>
<circle cx="497.0666666666584" cy="-2.095135135135135" fill="#07fc03" r="0.800000011920929"/>
<circle cx="497.5999999999918" cy="-2.095135135135135" fill="#07fc03" r="0.800000011920929"/>
<circle cx="498.13333333332514" cy="-2.095135135135135" fill="#07fc03" r="0.800000011920929"/>
<circle cx="498.6666666666584" cy="-2.0583783783783782" fill="#07fc03" r="0.800000011920929"/>
<circle cx="499.19999999999175" cy="-2.0583783783783782" fill="#07fc03" r="0.800000011920929"/>
<circle cx="499.7333333333251" cy="-2.0583783783783782" fill="#07fc03" r="0.800000011920929"/>
<circle cx="500.26666666665835" cy="-2.0583783783783782" fill="#07fc03" r="0.800000011920929"/>
<circle cx="500.7999999999917" cy="-2.0583783783783782" fill="#07fc03" r="0.800000011920929"/>
<circle cx="501.3333333333251" cy="-2.0583783783783782" fill="#07fc03" r="0.800000011920929"/>
<circle cx="501.8666666666583" cy="-2.0583783783783782" fill="#07fc03" r="0.800000011920929"/>
<circle cx="502.3999999999917" cy="-2.0583783783783782" fill="#07fc03" r="0.800000011920929"/>
<circle cx="502.933333333325" cy="-2.0583783783783782" fill="#07fc03" r="0.800000011920929"/>
<circle cx="503.4666666666583" cy="-2.0583783783783782" fill="#07fc03" r="0.800000011920929"/>
<circle cx="503.9999999999916" cy="-2.0583783783783782" fill="#07fc03" r="0.800000011920929"/>
<circle cx="504.53333333332495" cy="-2.0216216216216214" fill="#07fc03" r="0.800000011920929"/>
<circle cx="505.0666666666582" cy="-2.0216216216216214" fill="#07fc03" r="0.800000011920929"/>
<circle cx="505.59999999999155" cy="-2.0216216216216214" fill="#07fc03" r="0.800000011920929"/>
<circle cx="506.1333333333249" cy="-2.0216216216216214" fill="#07fc03" r="0.800000011920929"/>
<circle cx="506.6666666666583" cy="-2.0216216216216214" fill="#07fc03" r="0.800000011920929"/>
<circle cx="507.1999999999915" cy="-2.0216216216216214" fill="#07fc03" r="0.800000011920929"/>
<circle cx="507.7333333333249" cy="-2.0216216216216214" fill="#07fc03" r="0.800000011920929"/>
<circle cx="508.26666666665824" cy="-2.0216216216216214" fill="#07fc03" r="0.800000011920929"/>
<circle cx="508.7999999999915" cy="-2.0216216216216214" fill="#07fc03" r="0.800000011920929"/>
<circle cx="509.33333333332484" cy="-2.0216216216216214" fill="#07fc03" r="0.800000011920929"/>
<circle cx="509.8666666666582" cy="-2.0216216216216214" fill="#07fc03" r="0.800000011920929"/>
<circle cx="510.39999999999145" cy="-2.0216216216216214" fill="#07fc03" r="0.800000011920929"/>
<circle cx="510.9333333333248" cy="-1.9848648648648648" fill="#07fc03" r="0.800000011920929"/>
<circle cx="511.46666666665817" cy="-1.9848648648648648" fill="#07fc03" r="0.800000011920929"/>
<circle cx="511.9999999999914" cy="-1.9848648648648648" fill="#07fc03" r="0.800000011920929"/>
<circle cx="512.5333333333248" cy="-1.9848648648648648" fill="#07fc03" r="0.800000011920929"/>
<circle cx="513.0666666666581" cy="-1.9848648648648648" fill="#07fc03" r="0.800000011920929"/>
<circle cx="513.5999999999915" cy="-1.9848648648648648" fill="#07fc03" r="0.800000011920929"/>
<circle cx="514.1333333333247" cy="-1.9848648648648648" fill="#07fc03" r="0.800000011920929"/>
<circle cx="514.6666666666581" cy="-1.9848648648648648" fill="#07fc03" r="0.800000011920929"/>
<circle cx="515.1999999999914" cy="-1.9848648648648648" fill="#07fc03" r="0.800000011920929"/>
<circle cx="515.7333333333247" cy="-1.9848648648648648" fill="#07fc03" r="0.800000011920929"/>
<circle cx="516.266666666658" cy="-1.9848648648648648" fill="#07fc03" r="0.800000011920929"/>
<circle cx="516.7999999999914" cy="-1.9848648648648648" fill="#07fc03" r="0.800000011920929"/>
<circle cx="517.3333333333246" cy="-1.9481081081081082" fill="#07fc03" r="0.800000011920929"/>
<circle cx="517.866666666658" cy="-1.9481081081081082" fill="#07fc03" r="0.800000011920929"/>
<circle cx="518.3999999999913" cy="-1.9481081081081082" fill="#07fc03" r="0.800000011920929"/>
<circle cx="518.9333333333246" cy="-1.9481081081081082" fill="#07fc03" r="0.800000011920929"/>
<circle cx="519.4666666666579" cy="-1.9481081081081082" fill="#07fc03" r="0.800000011920929"/>
<circle cx="519.9999999999914" cy="-1.9481081081081082" fill="#07fc03" r="0.800000011920929"/>
<circle cx="520.5333333333245" cy="-1.9481081081081082" fill="#07fc03" r="0.800000011920929"/>
<circle cx="521.066666666658" cy="-1.9481081081081082" fill="#07fc03" r="0.800000011920929"/>
<circle cx="521.5999999999913" cy="-1.9481081081081082" fill="#07fc03" r="0.800000011920929"/>
<circle cx="522.1333333333246" cy="-1.9481081081081082" fill="#07fc03" r="0.800000011920929"/>
<circle cx="522.6666666666579" cy="-1.9481081081081082" fill="#07fc03" r="0.800000011920929"/>
<circle cx="523.1999999999912" cy="-1.9481081081081082" fill="#07fc03" r="0.800000011920929"/>
<circle cx="523.7333333333246" cy="-1.9481081081081082" fill="#07fc03" r="0.800000011920929"/>
<circle cx="524.2666666666578" cy="-1.9481081081081082" fill="#07fc03" r="0.800000011920929"/>
<circle cx="524.7999999999912" cy="-1.9481081081081082" fill="#07fc03" r="0.800000011920929"/>
<circle cx="525.3333333333245" cy="-1.9113513513513514" fill="#07fc03" r="0.800000011920929"/>
<circle cx="525.8666666666578" cy="-1.9113513513513514" fill="#07fc03" r="0.800000011920929"/>
<circle cx="526.3999999999911" cy="-1.9113513513513514" fill="#07fc03" r="0.800000011920929"/>
<circle cx="526.9333333333245" cy="-1.9113513513513514" fill="#07fc03" r="0.800000011920929"/>
<circle cx="527.4666666666577" cy="-1.9113513513513514" fill="#07fc03" r="0.800000011920929"/>
<circle cx="527.9999999999911" cy="-1.9113513513513514" fill="#07fc03" r="0.800000011920929"/>
<circle cx="528.5333333333244" cy="-1.9113513513513514" fill="#07fc03" r="0.800000011920929"/>
<circle cx="529.0666666666577" cy="-1.9113513513513514" fill="#07fc03" r="0.800000011920929"/>
<circle cx="529.599999999991" cy="-1.9113513513513514" fill="#07fc03" r="0.800000011920929"/>
<circle cx="530.1333333333245" cy="-1.9113513513513514" fill="#07fc03" r="0.800000011920929"/>
<circle cx="530.6666666666578" cy="-1.9113513513513514" fill="#07fc03" r="0.800000011920929"/>
<circle cx="531.1999999999911" cy="-1.9113513513513514" fill="#07fc03" r="0.800000011920929"/>
<circle cx="531.7333333333244" cy="-1.9113513513513514" fill="#07fc03" r="0.800000011920929"/>
<circle cx="532.2666666666578" cy="-1.9113513513513514" fill="#07fc03" r="0.800000011920929"/>
<circle cx="532.799999999991" cy="-1.9113513513513514" fill="#07fc03" r="0.800000011920929"/>
</g>
</g>
<g>
<g>
<line stroke="black" stroke-width="1" x1="0" x2="0" y1="0" y2="10"/>
<line stroke="black" stroke-width="1" x1="106.66666666666667" x2="106.66666666666667" y1="0" y2="10"/>
<line stroke="black" stroke-width="1" x1="213.33333333333334" x2="213.33333333333334" y1="0" y2="10"/>
<line stroke="black" stroke-width="1" x1="320" x2="320" y1="0" y2="10"/>
<line stroke="black" stroke-width="1" x1="426.6666666666667" x2="426.6666666666667" y1="0" y2="10"/>
</g>
<line stroke="black" stroke-width="1" x1="0" x2="480" y1="0" y2="0"/>
<g>
<text font-size="12" text-anchor="middle" x="0" y="20">
0
</text>
<text font-size="12" text-anchor="middle" x="106.66666666666667" y="20">
2
</text>
<text font-size="12" text-anchor="middle" x="213.33333333333334" y="20">
4
</text>
<text font-size="12" text-anchor="middle" x="320" y="20">
6
</text>
<text font-size="12" text-anchor="middle" x="426.6666666666667" y="20">
8
</text>
</g>
<text font-size="12" text-anchor="middle" x="240" y="30">
Height
</text>
</g>
<g>
<g>
<line stroke="black" stroke-width="1" x1="0" x2="-10" y1="-0" y2="-0"/>
<line stroke="black" stroke-width="1" x1="0" x2="-10" y1="-73.51351351351352" y2="-73.51351351351352"/>
<line stroke="black" stroke-width="1" x1="0" x2="-10" y1="-147.02702702702703" y2="-147.02702702702703"/>
<line stroke="black" stroke-width="1" x1="0" x2="-10" y1="-220.54054054054055" y2="-220.54054054054055"/>
<line stroke="black" stroke-width="1" x1="0" x2="-10" y1="-294.05405405405406" y2="-294.05405405405406"/>
</g>
<line stroke="black" stroke-width="1" x1="0" x2="0" y1="0" y2="-340"/>
<g>
<text dominant-baseline="middle" font-size="12" text-anchor="end" x="-15" y="-0">
750
</text>
<text dominant-baseline="middle" font-size="12" text-anchor="end" x="-15" y="-73.51351351351352">
2750
</text>
<text dominant-baseline="middle" font-size="12" text-anchor="end" x="-15" y="-147.02702702702703">
4750
</text>
<text dominant-baseline="middle" font-size="12" text-anchor="end" x="-15" y="-220.54054054054055">
6750
</text>
<text dominant-baseline="middle" font-size="12" text-anchor="end" x="-15" y="-294.05405405405406">
8750
</text>
</g>
<text font-size="12" text-anchor="middle" transform="rotate(-90 -48 -170)" x="-48" y="-182">
Surface Area
</text>
</g>
</g>
</svg>