<svg viewBox="0 0 600 400" xmlns="http://www.w3.org/2000/svg">
<g transform="translate(72, 364)">
<g>
<g>
<circle cx="2.4" cy="-372.60497797866265" fill="#DD3355" r="2"/>
<circle cx="4.8" cy="-155.72201635515364" fill="#DD3355" r="2"/>
<circle cx="7.2" cy="-87.5882209433318" fill="#DD3355" r="2"/>
<circle cx="9.6" cy="-56.04473856602095" fill="#DD3355" r="2"/>
<circle cx="12" cy="-38.86136490847976" fill="#DD3355" r="2"/>
<circle cx="14.4" cy="-28.70285036749461" fill="#DD3355" r="2"/>
<circle cx="16.8" cy="-22.460884370840436" fill="#DD3355" r="2"/>
<circle cx="19.2" cy="-18.600554449437738" fill="#DD3355" r="2"/>
<circle cx="21.6" cy="-16.280634419079774" fill="#DD3355" r="2"/>
<circle cx="24" cy="-15.003749174266046" fill="#DD3355" r="2"/>
<circle cx="26.4" cy="-14.458347430120575" fill="#DD3355" r="2"/>
<circle cx="28.8" cy="-14.44021000260573" fill="#DD3355" r="2"/>
<circle cx="31.2" cy="-14.81048031191558" fill="#DD3355" r="2"/>
<circle cx="33.6" cy="-15.471858366955091" fill="#DD3355" r="2"/>
<circle cx="36" cy="-16.354427607512807" fill="#DD3355" r="2"/>
<circle cx="38.4" cy="-17.406868436389768" fill="#DD3355" r="2"/>
<circle cx="40.8" cy="-18.59082099068555" fill="#DD3355" r="2"/>
<circle cx="43.2" cy="-19.877160176572023" fill="#DD3355" r="2"/>
<circle cx="45.6" cy="-21.243470444822865" fill="#DD3355" r="2"/>
<circle cx="48" cy="-22.67229503435077" fill="#DD3355" r="2"/>
<circle cx="50.4" cy="-24.149897848015957" fill="#DD3355" r="2"/>
<circle cx="52.8" cy="-25.665372272410654" fill="#DD3355" r="2"/>
<circle cx="55.2" cy="-27.209989509680234" fill="#DD3355" r="2"/>
<circle cx="57.6" cy="-28.776715227742827" fill="#DD3355" r="2"/>
<circle cx="60" cy="-30.359846415052427" fill="#DD3355" r="2"/>
<circle cx="62.4" cy="-31.954735341252324" fill="#DD3355" r="2"/>
<circle cx="64.8" cy="-33.55757748377976" fill="#DD3355" r="2"/>
<circle cx="67.2" cy="-35.16524700255044" fill="#DD3355" r="2"/>
<circle cx="69.6" cy="-36.77516795567352" fill="#DD3355" r="2"/>
<circle cx="72" cy="-38.3852126588183" fill="#DD3355" r="2"/>
<circle cx="74.4" cy="-39.993620855734434" fill="#DD3355" r="2"/>
<circle cx="76.8" cy="-41.59893498583196" fill="#DD3355" r="2"/>
<circle cx="79.2" cy="-43.1999480047324" fill="#DD3355" r="2"/>
<circle cx="81.6" cy="-44.79566106875332" fill="#DD3355" r="2"/>
<circle cx="84" cy="-46.385249025506425" fill="#DD3355" r="2"/>
<circle cx="86.4" cy="-47.9680321231837" fill="#DD3355" r="2"/>
<circle cx="88.8" cy="-49.543452704758444" fill="#DD3355" r="2"/>
<circle cx="91.2" cy="-51.11105592142423" fill="#DD3355" r="2"/>
<circle cx="93.6" cy="-52.67047370441816" fill="#DD3355" r="2"/>
<circle cx="96" cy="-54.221411392010346" fill="#DD3355" r="2"/>
<circle cx="98.4" cy="-55.76363653060269" fill="#DD3355" r="2"/>
<circle cx="100.8" cy="-57.29696946416529" fill="#DD3355" r="2"/>
<circle cx="103.2" cy="-58.82127540102894" fill="#DD3355" r="2"/>
<circle cx="105.6" cy="-60.336457706090954" fill="#DD3355" r="2"/>
<circle cx="108" cy="-61.84245221336189" fill="#DD3355" r="2"/>
<circle cx="110.4" cy="-63.33922239118515" fill="#DD3355" r="2"/>
<circle cx="112.8" cy="-64.82675522245948" fill="#DD3355" r="2"/>
<circle cx="115.2" cy="-66.30505768637086" fill="#DD3355" r="2"/>
<circle cx="117.6" cy="-67.77415374771049" fill="#DD3355" r="2"/>
<circle cx="120" cy="-69.23408177576822" fill="#DD3355" r="2"/>
<circle cx="122.4" cy="-70.68489232778047" fill="#DD3355" r="2"/>
<circle cx="124.8" cy="-72.12664624256024" fill="#DD3355" r="2"/>
<circle cx="127.2" cy="-73.55941299869633" fill="#DD3355" r="2"/>
<circle cx="129.6" cy="-74.98326929894112" fill="#DD3355" r="2"/>
<circle cx="132" cy="-76.39829784840167" fill="#DD3355" r="2"/>
<circle cx="134.4" cy="-77.80458629912758" fill="#DD3355" r="2"/>
<circle cx="136.8" cy="-79.20222633784694" fill="#DD3355" r="2"/>
<circle cx="139.2" cy="-80.59131289707372" fill="#DD3355" r="2"/>
<circle cx="141.6" cy="-81.97194347272888" fill="#DD3355" r="2"/>
<circle cx="144" cy="-83.34421753386619" fill="#DD3355" r="2"/>
<circle cx="146.4" cy="-84.70823601216601" fill="#DD3355" r="2"/>
<circle cx="148.8" cy="-86.06410086060812" fill="#DD3355" r="2"/>
<circle cx="151.2" cy="-87.41191467221766" fill="#DD3355" r="2"/>
<circle cx="153.6" cy="-88.7517803510404" fill="#DD3355" r="2"/>
<circle cx="156" cy="-90.08380082857687" fill="#DD3355" r="2"/>
<circle cx="158.4" cy="-91.40807881981908" fill="#DD3355" r="2"/>
<circle cx="160.8" cy="-92.72471661382289" fill="#DD3355" r="2"/>
<circle cx="163.2" cy="-94.03381589441459" fill="#DD3355" r="2"/>
<circle cx="165.6" cy="-95.33547758721473" fill="#DD3355" r="2"/>
<circle cx="168" cy="-96.62980172965237" fill="#DD3355" r="2"/>
<circle cx="170.4" cy="-97.91688736107659" fill="#DD3355" r="2"/>
<circle cx="172.8" cy="-99.19683243043876" fill="#DD3355" r="2"/>
<circle cx="175.2" cy="-100.46973371934045" fill="#DD3355" r="2"/>
<circle cx="177.6" cy="-101.73568677851836" fill="#DD3355" r="2"/>
<circle cx="180" cy="-102.99478587607956" fill="#DD3355" r="2"/>
<circle cx="182.4" cy="-104.24712395600727" fill="#DD3355" r="2"/>
<circle cx="184.8" cy="-105.49279260564231" fill="#DD3355" r="2"/>
<circle cx="187.2" cy="-106.73188203100085" fill="#DD3355" r="2"/>
<circle cx="189.6" cy="-107.96448103893013" fill="#DD3355" r="2"/>
<circle cx="192" cy="-109.1906770252233" fill="#DD3355" r="2"/>
<circle cx="194.4" cy="-110.41055596792098" fill="#DD3355" r="2"/>
<circle cx="196.8" cy="-111.62420242511975" fill="#DD3355" r="2"/>
<circle cx="199.2" cy="-112.83169953668825" fill="#DD3355" r="2"/>
<circle cx="201.6" cy="-114.0331290293653" fill="#DD3355" r="2"/>
<circle cx="204" cy="-115.22857122477372" fill="#DD3355" r="2"/>
<circle cx="206.4" cy="-116.4181050499416" fill="#DD3355" r="2"/>
<circle cx="208.8" cy="-117.60180804996999" fill="#DD3355" r="2"/>
<circle cx="211.2" cy="-118.77975640252878" fill="#DD3355" r="2"/>
<circle cx="213.6" cy="-119.95202493390033" fill="#DD3355" r="2"/>
<circle cx="216" cy="-121.11868713632471" fill="#DD3355" r="2"/>
<circle cx="218.4" cy="-122.27981518642764" fill="#DD3355" r="2"/>
<circle cx="220.8" cy="-123.43547996454004" fill="#DD3355" r="2"/>
<circle cx="223.2" cy="-124.58575107474125" fill="#DD3355" r="2"/>
<circle cx="225.6" cy="-125.7306968654757" fill="#DD3355" r="2"/>
<circle cx="228" cy="-126.87038445061481" fill="#DD3355" r="2"/>
<circle cx="230.4" cy="-128.00487973084793" fill="#DD3355" r="2"/>
<circle cx="232.8" cy="-129.13424741530267" fill="#DD3355" r="2"/>
<circle cx="235.2" cy="-130.25855104330708" fill="#DD3355" r="2"/>
<circle cx="237.6" cy="-131.37785300621593" fill="#DD3355" r="2"/>
<circle cx="240" cy="-132.4922145692353" fill="#DD3355" r="2"/>
<circle cx="242.4" cy="-133.60169589318627" fill="#DD3355" r="2"/>
<circle cx="244.8" cy="-134.70635605615757" fill="#DD3355" r="2"/>
<circle cx="247.2" cy="-135.80625307500392" fill="#DD3355" r="2"/>
<circle cx="249.6" cy="-136.90144392665184" fill="#DD3355" r="2"/>
<circle cx="252" cy="-137.99198456918054" fill="#DD3355" r="2"/>
<circle cx="254.4" cy="-139.07792996265178" fill="#DD3355" r="2"/>
<circle cx="256.8" cy="-140.15933408966382" fill="#DD3355" r="2"/>
<circle cx="259.2" cy="-141.23624997561103" fill="#DD3355" r="2"/>
<circle cx="261.6" cy="-142.308729708633" fill="#DD3355" r="2"/>
<circle cx="264" cy="-143.37682445923923" fill="#DD3355" r="2"/>
<circle cx="266.4" cy="-144.4405844995997" fill="#DD3355" r="2"/>
<circle cx="268.8" cy="-145.50005922249218" fill="#DD3355" r="2"/>
<circle cx="271.2" cy="-146.55529715990016" fill="#DD3355" r="2"/>
<circle cx="273.6" cy="-147.60634600125795" fill="#DD3355" r="2"/>
<circle cx="276" cy="-148.6532526113376" fill="#DD3355" r="2"/>
<circle cx="278.4" cy="-149.69606304777878" fill="#DD3355" r="2"/>
<circle cx="280.8" cy="-150.7348225782588" fill="#DD3355" r="2"/>
<circle cx="283.2" cy="-151.7695756973053" fill="#DD3355" r="2"/>
<circle cx="285.6" cy="-152.8003661427518" fill="#DD3355" r="2"/>
<circle cx="288" cy="-153.8272369118395" fill="#DD3355" r="2"/>
<circle cx="290.4" cy="-154.8502302769673" fill="#DD3355" r="2"/>
<circle cx="292.8" cy="-155.8693878010948" fill="#DD3355" r="2"/>
<circle cx="295.2" cy="-156.88475035280123" fill="#DD3355" r="2"/>
<circle cx="297.6" cy="-157.89635812100605" fill="#DD3355" r="2"/>
<circle cx="300" cy="-158.90425062935518" fill="#DD3355" r="2"/>
<circle cx="302.4" cy="-159.9084667502787" fill="#DD3355" r="2"/>
<circle cx="304.8" cy="-160.90904471872486" fill="#DD3355" r="2"/>
<circle cx="307.2" cy="-161.90602214557697" fill="#DD3355" r="2"/>
<circle cx="309.6" cy="-162.89943603075815" fill="#DD3355" r="2"/>
<circle cx="312" cy="-163.88932277603038" fill="#DD3355" r="2"/>
<circle cx="314.4" cy="-164.87571819749365" fill="#DD3355" r="2"/>
<circle cx="316.8" cy="-165.85865753779154" fill="#DD3355" r="2"/>
<circle cx="319.2" cy="-166.83817547802946" fill="#DD3355" r="2"/>
<circle cx="321.6" cy="-167.81430614941092" fill="#DD3355" r="2"/>
<circle cx="324" cy="-168.78708314459953" fill="#DD3355" r="2"/>
<circle cx="326.4" cy="-169.756539528811" fill="#DD3355" r="2"/>
<circle cx="328.8" cy="-170.7227078506429" fill="#DD3355" r="2"/>
<circle cx="331.2" cy="-171.68562015264726" fill="#DD3355" r="2"/>
<circle cx="333.6" cy="-172.64530798165225" fill="#DD3355" r="2"/>
<circle cx="336" cy="-173.60180239883897" fill="#DD3355" r="2"/>
<circle cx="338.4" cy="-174.55513398957905" fill="#DD3355" r="2"/>
<circle cx="340.8" cy="-175.505332873039" fill="#DD3355" r="2"/>
<circle cx="343.2" cy="-176.45242871155708" fill="#DD3355" r="2"/>
<circle cx="345.6" cy="-177.39645071979737" fill="#DD3355" r="2"/>
<circle cx="348" cy="-178.33742767368804" fill="#DD3355" r="2"/>
<circle cx="350.4" cy="-179.27538791914805" fill="#DD3355" r="2"/>
<circle cx="352.8" cy="-180.21035938060777" fill="#DD3355" r="2"/>
<circle cx="355.2" cy="-181.14236956932888" fill="#DD3355" r="2"/>
<circle cx="357.6" cy="-182.07144559152874" fill="#DD3355" r="2"/>
<circle cx="360" cy="-182.99761415631355" fill="#DD3355" r="2"/>
<circle cx="362.4" cy="-183.92090158342617" fill="#DD3355" r="2"/>
<circle cx="364.8" cy="-184.84133381081185" fill="#DD3355" r="2"/>
<circle cx="367.2" cy="-185.75893640200837" fill="#DD3355" r="2"/>
<circle cx="369.6" cy="-186.67373455336326" fill="#DD3355" r="2"/>
<circle cx="372" cy="-187.5857531010836" fill="#DD3355" r="2"/>
<circle cx="374.4" cy="-188.4950165281228" fill="#DD3355" r="2"/>
<circle cx="376.8" cy="-189.4015489709075" fill="#DD3355" r="2"/>
<circle cx="379.2" cy="-190.30537422591004" fill="#DD3355" r="2"/>
<circle cx="381.6" cy="-191.20651575606925" fill="#DD3355" r="2"/>
<circle cx="384" cy="-192.10499669706422" fill="#DD3355" r="2"/>
<circle cx="386.4" cy="-193.0008398634449" fill="#DD3355" r="2"/>
<circle cx="388.8" cy="-193.89406775462217" fill="#DD3355" r="2"/>
<circle cx="391.2" cy="-194.78470256072274" fill="#DD3355" r="2"/>
<circle cx="393.6" cy="-195.67276616831032" fill="#DD3355" r="2"/>
<circle cx="396" cy="-196.5582801659784" fill="#DD3355" r="2"/>
<circle cx="398.4" cy="-197.441265849816" fill="#DD3355" r="2"/>
<circle cx="400.8" cy="-198.32174422875232" fill="#DD3355" r="2"/>
<circle cx="403.2" cy="-199.19973602977984" fill="#DD3355" r="2"/>
<circle cx="405.6" cy="-200.07526170306227" fill="#DD3355" r="2"/>
<circle cx="408" cy="-200.94834142692824" fill="#DD3355" r="2"/>
<circle cx="410.4" cy="-201.81899511275486" fill="#DD3355" r="2"/>
<circle cx="412.8" cy="-202.68724240974245" fill="#DD3355" r="2"/>
<circle cx="415.2" cy="-203.55310270958523" fill="#DD3355" r="2"/>
<circle cx="417.6" cy="-204.41659515103908" fill="#DD3355" r="2"/>
<circle cx="420" cy="-205.27773862438846" fill="#DD3355" r="2"/>
<circle cx="422.4" cy="-206.1365517758183" fill="#DD3355" r="2"/>
<circle cx="424.8" cy="-206.99305301168835" fill="#DD3355" r="2"/>
<circle cx="427.2" cy="-207.84726050271664" fill="#DD3355" r="2"/>
<circle cx="429.6" cy="-208.69919218807243" fill="#DD3355" r="2"/>
<circle cx="432" cy="-209.54886577938086" fill="#DD3355" r="2"/>
<circle cx="434.4" cy="-210.39629876464187" fill="#DD3355" r="2"/>
<circle cx="436.8" cy="-211.241508412066" fill="#DD3355" r="2"/>
<circle cx="439.2" cy="-212.08451177382838" fill="#DD3355" r="2"/>
<circle cx="441.6" cy="-212.92532568974275" fill="#DD3355" r="2"/>
<circle cx="444" cy="-213.7639667908583" fill="#DD3355" r="2"/>
<circle cx="446.4" cy="-214.60045150298114" fill="#DD3355" r="2"/>
<circle cx="448.8" cy="-215.4347960501218" fill="#DD3355" r="2"/>
<circle cx="451.2" cy="-216.26701645786994" fill="#DD3355" r="2"/>
<circle cx="453.6" cy="-217.09712855670037" fill="#DD3355" r="2"/>
<circle cx="456" cy="-217.92514798520884" fill="#DD3355" r="2"/>
<circle cx="458.4" cy="-218.751090193283" fill="#DD3355" r="2"/>
<circle cx="460.8" cy="-219.5749704452055" fill="#DD3355" r="2"/>
<circle cx="463.2" cy="-220.39680382269623" fill="#DD3355" r="2"/>
<circle cx="465.6" cy="-221.21660522789057" fill="#DD3355" r="2"/>
<circle cx="468" cy="-222.03438938625732" fill="#DD3355" r="2"/>
<circle cx="470.4" cy="-222.85017084945832" fill="#DD3355" r="2"/>
<circle cx="472.8" cy="-223.66396399814906" fill="#DD3355" r="2"/>
<circle cx="475.2" cy="-224.47578304472427" fill="#DD3355" r="2"/>
<circle cx="477.6" cy="-225.28564203600666" fill="#DD3355" r="2"/>
<circle cx="480" cy="-226.0935548558842" fill="#DD3355" r="2"/>
</g>
</g>
<g>
<g>
<line stroke="black" stroke-width="1" x1="0" x2="0" y1="0" y2="10"/>
<line stroke="black" stroke-width="1" x1="96" x2="96" y1="0" y2="10"/>
<line stroke="black" stroke-width="1" x1="192" x2="192" y1="0" y2="10"/>
<line stroke="black" stroke-width="1" x1="288" x2="288" y1="0" y2="10"/>
<line stroke="black" stroke-width="1" x1="384" x2="384" y1="0" y2="10"/>
<line stroke="black" stroke-width="1" x1="480" x2="480" y1="0" y2="10"/>
</g>
<line stroke="black" stroke-width="1" x1="0" x2="480" y1="0" y2="0"/>
<g>
<text font-size="12" text-anchor="middle" x="0" y="20">
0
</text>
<text font-size="12" text-anchor="middle" x="96" y="20">
40
</text>
<text font-size="12" text-anchor="middle" x="192" y="20">
80
</text>
<text font-size="12" text-anchor="middle" x="288" y="20">
120
</text>
<text font-size="12" text-anchor="middle" x="384" y="20">
160
</text>
<text font-size="12" text-anchor="middle" x="480" y="20">
200
</text>
</g>
<text font-size="12" text-anchor="middle" x="240" y="30">
Height
</text>
</g>
<g>
<g>
<line stroke="black" stroke-width="1" x1="0" x2="-10" y1="-0" y2="-0"/>
<line stroke="black" stroke-width="1" x1="0" x2="-10" y1="-59.130434782608695" y2="-59.130434782608695"/>
<line stroke="black" stroke-width="1" x1="0" x2="-10" y1="-118.26086956521739" y2="-118.26086956521739"/>
<line stroke="black" stroke-width="1" x1="0" x2="-10" y1="-177.3913043478261" y2="-177.3913043478261"/>
<line stroke="black" stroke-width="1" x1="0" x2="-10" y1="-236.52173913043478" y2="-236.52173913043478"/>
<line stroke="black" stroke-width="1" x1="0" x2="-10" y1="-295.6521739130435" y2="-295.6521739130435"/>
</g>
<line stroke="black" stroke-width="1" x1="0" x2="0" y1="0" y2="-340"/>
<g>
<text dominant-baseline="middle" font-size="12" text-anchor="end" x="-15" y="-0">
700
</text>
<text dominant-baseline="middle" font-size="12" text-anchor="end" x="-15" y="-59.130434782608695">
1100
</text>
<text dominant-baseline="middle" font-size="12" text-anchor="end" x="-15" y="-118.26086956521739">
1500
</text>
<text dominant-baseline="middle" font-size="12" text-anchor="end" x="-15" y="-177.3913043478261">
1900
</text>
<text dominant-baseline="middle" font-size="12" text-anchor="end" x="-15" y="-236.52173913043478">
2300
</text>
<text dominant-baseline="middle" font-size="12" text-anchor="end" x="-15" y="-295.6521739130435">
2700
</text>
</g>
<text font-size="12" text-anchor="middle" transform="rotate(-90 -48 -170)" x="-48" y="-182">
Surface Area
</text>
</g>
</g>
</svg>